<svg xmlns="http://www.w3.org/2000/svg" viewBox="0 0 355.75 199.67"><defs><style>.cls-1{fill:#604b8b;}.cls-2{fill:#fff;}.cls-3{fill:#d0bd6c;}</style></defs><title>Fichier 1</title><g id="Calque_2" data-name="Calque 2"><g id="Calque_1-2" data-name="Calque 1"><rect class="cls-1" width="355.75" height="199.67"/><path class="cls-2" d="M102.87,130.42l.41-.8a4.82,4.82,0,0,0,3.24,1.19c1.83,0,2.63-.77,2.63-1.74,0-2.69-6-1-6-4.66,0-1.44,1.12-2.69,3.61-2.69a5.54,5.54,0,0,1,3,.87l-.35.83a5,5,0,0,0-2.69-.81c-1.79,0-2.59.8-2.59,1.78,0,2.69,6,1.06,6,4.64,0,1.44-1.15,2.68-3.66,2.68A5.32,5.32,0,0,1,102.87,130.42Z"/><path class="cls-2" d="M123.23,126.71a5.15,5.15,0,1,1,5.15,5A4.93,4.93,0,0,1,123.23,126.71Zm9.26,0a4.12,4.12,0,1,0-4.1,4.06A4,4,0,0,0,132.49,126.71Z"/><path class="cls-2" d="M155.19,125.16c0,2.09-1.51,3.35-4,3.35h-2.63v3.1h-1V121.8h3.67C153.68,121.8,155.19,123.06,155.19,125.16Zm-1,0c0-1.57-1-2.47-3-2.47h-2.61v4.9h2.61C153.12,127.6,154.16,126.71,154.16,125.16Z"/><path class="cls-2" d="M177.3,121.8v9.81h-1v-4.52h-6.13v4.52h-1V121.8h1v4.37h6.13V121.8Z"/><path class="cls-2" d="M198.86,131.61l-2.24-3.15a6.9,6.9,0,0,1-.78,0H193.2v3.11h-1V121.8h3.67c2.49,0,4,1.26,4,3.36a3,3,0,0,1-2.24,3.08l2.4,3.36Zm-.06-6.44c0-1.57-1-2.47-3-2.47H193.2v4.92h2.61C197.76,127.62,198.8,126.71,198.8,125.16Z"/><path class="cls-2" d="M213.09,126.71a5.15,5.15,0,1,1,5.15,5A4.93,4.93,0,0,1,213.09,126.71Zm9.26,0a4.12,4.12,0,1,0-4.1,4.06A4,4,0,0,0,222.35,126.71Z"/><path class="cls-2" d="M237.38,121.8h1v8.91h5.49v.9h-6.53Z"/><path class="cls-2" d="M256.24,126.71a5.15,5.15,0,1,1,5.15,5A4.93,4.93,0,0,1,256.24,126.71Zm9.26,0a4.12,4.12,0,1,0-4.1,4.06A4,4,0,0,0,265.5,126.71Z"/><path class="cls-2" d="M287.44,126.71h1v3.74a5.41,5.41,0,0,1-3.6,1.25,5,5,0,1,1,0-10,4.83,4.83,0,0,1,3.64,1.41l-.64.66a4.14,4.14,0,1,0-3,7,4.25,4.25,0,0,0,2.56-.76Z"/><path class="cls-2" d="M302.94,127.42V121.8h1v5.57c0,2.33,1.09,3.39,3,3.39s3-1.06,3-3.39V121.8h1v5.62c0,2.82-1.51,4.27-4,4.27S302.94,130.24,302.94,127.42Z"/><path class="cls-2" d="M332.73,130.71v.9h-6.93V121.8h6.72v.9h-5.69v3.49h5.07v.88h-5.07v3.64Z"/><path class="cls-2" d="M111,141.8v9.81h-1v-4.52h-6.13v4.52h-1V141.8h1v4.37H110V141.8Z"/><path class="cls-2" d="M123.47,148.22v3.39h-1v-3.39l-3.92-6.42h1.11l3.36,5.5,3.36-5.5h1Z"/><path class="cls-2" d="M142.39,145.16c0,2.09-1.51,3.35-4,3.35h-2.63v3.1h-1V141.8h3.67C140.88,141.8,142.39,143.06,142.39,145.16Zm-1,0c0-1.57-1-2.47-3-2.47h-2.61v4.9h2.61C140.32,147.6,141.35,146.71,141.35,145.16Z"/><path class="cls-2" d="M158.74,141.8v9.81h-.85l-6.3-8v8h-1V141.8h.85l6.32,8v-8Z"/><path class="cls-2" d="M167,146.71a5.15,5.15,0,1,1,5.15,5A4.93,4.93,0,0,1,167,146.71Zm9.26,0a4.12,4.12,0,1,0-4.1,4.06A4,4,0,0,0,176.24,146.71Z"/><path class="cls-2" d="M187.28,142.7h-3.45v-.9h7.93v.9h-3.45v8.91h-1Z"/><path class="cls-2" d="M207.53,141.8v9.81h-1v-4.52h-6.13v4.52h-1V141.8h1v4.37h6.13V141.8Z"/><path class="cls-2" d="M223.58,150.71v.9h-6.93V141.8h6.72v.9h-5.69v3.49h5.07v.88h-5.07v3.64ZM220.09,141h-1l1.92-1.74h1.33Z"/><path class="cls-2" d="M238.62,151.61l-2.24-3.15a6.9,6.9,0,0,1-.78,0H233v3.11h-1V141.8h3.67c2.49,0,4,1.26,4,3.36a3,3,0,0,1-2.24,3.08l2.4,3.36Zm-.06-6.44c0-1.57-1-2.47-3-2.47H233v4.92h2.61C237.53,147.62,238.57,146.71,238.57,145.16Z"/><path class="cls-2" d="M254.12,149h-5.46l-1.18,2.62H246.4l4.48-9.81h1l4.48,9.81H255.3Zm-.38-.84-2.35-5.27L249,148.15Z"/><path class="cls-2" d="M271.61,145.16c0,2.09-1.51,3.35-4,3.35H265v3.1h-1V141.8h3.67C270.1,141.8,271.61,143.06,271.61,145.16Zm-1,0c0-1.57-1-2.47-3-2.47H265v4.9h2.61C269.54,147.6,270.57,146.71,270.57,145.16Z"/><path class="cls-2" d="M286.7,150.71v.9h-6.93V141.8h6.72v.9H280.8v3.49h5.07v.88H280.8v3.64Z"/><path class="cls-2" d="M295,147.42V141.8h1v5.57c0,2.33,1.09,3.39,3,3.39s3-1.06,3-3.39V141.8h1v5.62c0,2.82-1.51,4.27-4,4.27S295,150.24,295,147.42Z"/><path class="cls-2" d="M313.77,142.7h-3.45v-.9h7.93v.9h-3.45v8.91h-1Z"/><path class="cls-2" d="M332.76,150.71v.9h-6.93V141.8h6.72v.9h-5.69v3.49h5.07v.88h-5.07v3.64Z"/><path class="cls-2" d="M123.42,76.14a3.69,3.69,0,0,1-.83,1,3,3,0,0,1-1,.65q-.5.16-.65-.09a11,11,0,0,0-3.38-3.89,9.49,9.49,0,0,0-4.61-1.8,6.9,6.9,0,0,0-2.65.2,3.71,3.71,0,0,0-1.58.81,3.27,3.27,0,0,0-.67,1.67,4.63,4.63,0,0,0,.4,2.65,5.6,5.6,0,0,0,1.94,2.39,13,13,0,0,0,3.28,1.64l1.4.49q1.3.45,2,.74,4.64,2,5.22,5.87A7,7,0,0,1,121,93.58a9.88,9.88,0,0,1-2.3,2.48A9.31,9.31,0,0,1,111.22,98a10.94,10.94,0,0,1-4.93-2.21,12,12,0,0,1-3.46-4.27q-.14-.29.16-.83a4.15,4.15,0,0,1,.85-1,3,3,0,0,1,1-.65q.49-.16.63.13a11.76,11.76,0,0,0,3.29,4,9.79,9.79,0,0,0,4.39,2.05,7.62,7.62,0,0,0,3.78-.13,3.75,3.75,0,0,0,2-1.24,4.52,4.52,0,0,0,.58-3.24q-.5-3.42-4.82-5.29a18.51,18.51,0,0,0-1.94-.68,19.15,19.15,0,0,1-4.82-2.23,6.62,6.62,0,0,1-2.2-2.72,6,6,0,0,1-.34-3.62,7.82,7.82,0,0,1,2.14-3.85A8.77,8.77,0,0,1,115,69.32a10.33,10.33,0,0,1,5,1.93,11.72,11.72,0,0,1,3.58,4.09Q123.71,75.58,123.42,76.14Z"/><path class="cls-2" d="M141.48,94.16c.3,0,.47,0,.52.27a1.33,1.33,0,0,1-.31.92,6.07,6.07,0,0,1-1.28,1.3,7.38,7.38,0,0,1-1.91,1.12q-2,.79-2.45-.72a7.42,7.42,0,0,1-.18-2.27,9.13,9.13,0,0,1-3.78,3,5.75,5.75,0,0,1-3.56.22q-5.15-1.44-3.1-11.88a13.4,13.4,0,0,1,2.41-5.69,7.47,7.47,0,0,1,7.24-3.24,4.33,4.33,0,0,1,2.81,1.33,3.2,3.2,0,0,1,1.73-1.33.51.51,0,0,1,.45.05.42.42,0,0,1,.13.41q-2.09,15.23-1.48,17.14.29.86.94.54a4.93,4.93,0,0,0,.83-.59A2.16,2.16,0,0,1,141.48,94.16Zm-5.42-3q.25-2.88.36-3.67.94-7.06-3.49-7.63a5.36,5.36,0,0,0-1.87,0,2.57,2.57,0,0,0-1.48.68,10.16,10.16,0,0,0-1.48,4.1,23.66,23.66,0,0,0-.5,5.22q.22,4.46,3.17,5.29a3.07,3.07,0,0,0,3.49-.83A13.07,13.07,0,0,0,136.06,91.17Z"/><path class="cls-2" d="M146.61,78.43a3.66,3.66,0,0,1,.9-.88,2.57,2.57,0,0,1,.79-.38q.65-.14.58.4l-.25,2.38a9.51,9.51,0,0,1,2.45-2,5.86,5.86,0,0,1,3-.83q6.16-.07,5.26,8.46l-.86,10.08a2.08,2.08,0,0,1-.47,1,4,4,0,0,1-.9.9,2.58,2.58,0,0,1-.76.4q-.65.18-.61-.4l.86-10.08q.83-7.63-4.46-7.6a3.22,3.22,0,0,0-1.55.29q-1.26.72-2.34,4v.11L147,95.71a2,2,0,0,1-.47,1,3.79,3.79,0,0,1-.9.86,2.58,2.58,0,0,1-.79.38q-.65.14-.58-.43l1.91-18.11A2.07,2.07,0,0,1,146.61,78.43Z"/><path class="cls-2" d="M176.24,67.75a4.14,4.14,0,0,1,.9-.88,2.55,2.55,0,0,1,.76-.4q.65-.18.61.4l-2.45,28.8a2.08,2.08,0,0,1-.47,1,4,4,0,0,1-.9.9,2.58,2.58,0,0,1-.76.4q-.65.18-.61-.4l.25-2.84a9.14,9.14,0,0,1-3.78,3,5.73,5.73,0,0,1-3.6.25q-5.11-1.48-3.1-11.88a13.38,13.38,0,0,1,2.41-5.69q3-3.82,7.24-3.24a5.16,5.16,0,0,1,2.23.79l.79-9.18A2,2,0,0,1,176.24,67.75Zm-1.76,16.36q-.47-3.85-3.89-4.25a6.59,6.59,0,0,0-1.84,0,2.47,2.47,0,0,0-1.51.68,9.42,9.42,0,0,0-1.4,3.82Q164,94,168.42,95.2a3.07,3.07,0,0,0,3.49-.83A13.35,13.35,0,0,0,173.79,91a.89.89,0,0,1,.11-.22Z"/><path class="cls-2" d="M182.36,78.43a3.68,3.68,0,0,1,.9-.88,2.57,2.57,0,0,1,.79-.38q.65-.14.58.4l-.18,1.58a7.46,7.46,0,0,1,5.72-2q.5.07.25.76a3,3,0,0,1-1.19,1.48,2.29,2.29,0,0,1-1.15.5,4.21,4.21,0,0,0-3.13.76,3.43,3.43,0,0,0-.86,2.2l-1.37,12.89a2,2,0,0,1-.47,1,3.79,3.79,0,0,1-.9.86,2.58,2.58,0,0,1-.79.38q-.65.14-.58-.43l1.33-12.6a2.13,2.13,0,0,1,0-.29l.54-5.22A2.07,2.07,0,0,1,182.36,78.43Z"/><path class="cls-2" d="M193.84,78.43a3.68,3.68,0,0,1,.9-.88,2.57,2.57,0,0,1,.79-.38q.65-.14.58.4L194.2,95.71a2,2,0,0,1-.47,1,3.79,3.79,0,0,1-.9.86,2.58,2.58,0,0,1-.79.38q-.65.14-.58-.43l1.91-18.11A2.07,2.07,0,0,1,193.84,78.43Zm.16-6.19a3.69,3.69,0,0,1,.88-.9,2.42,2.42,0,0,1,.79-.4q.65-.18.61.4l-.18,2.52a2.13,2.13,0,0,1-.45,1,3.71,3.71,0,0,1-.88.9,2.41,2.41,0,0,1-.79.4q-.65.18-.61-.4l.18-2.52A2.13,2.13,0,0,1,194,72.24Z"/><path class="cls-2" d="M200.68,78.43a3.66,3.66,0,0,1,.9-.88,2.57,2.57,0,0,1,.79-.38q.65-.14.58.4l-.25,2.38a9.51,9.51,0,0,1,2.45-2,5.86,5.86,0,0,1,3-.83q6.16-.07,5.26,8.46l-.86,10.08a2.08,2.08,0,0,1-.47,1,4,4,0,0,1-.9.9,2.58,2.58,0,0,1-.76.4q-.65.18-.61-.4l.86-10.08q.83-7.63-4.46-7.6a3.22,3.22,0,0,0-1.55.29q-1.26.72-2.34,4v.11L201,95.71a2,2,0,0,1-.47,1,3.79,3.79,0,0,1-.9.86,2.58,2.58,0,0,1-.79.38q-.65.14-.58-.43l1.91-18.11A2.07,2.07,0,0,1,200.68,78.43Z"/><path class="cls-2" d="M219.54,88.18q-.15,6.66,5.8,7.06a8.7,8.7,0,0,0,2.27-.07q1.3-.22,1.44-.5a3.88,3.88,0,0,1,.85-1,3.14,3.14,0,0,1,1-.67q.47-.16.65.13.25.47-.68,1.69A9.14,9.14,0,0,1,229,96.7a6.12,6.12,0,0,1-1.93,1,9.18,9.18,0,0,1-3.78.32q-7.09-.47-6.37-9a22.37,22.37,0,0,1,.79-4.55,11.57,11.57,0,0,1,1.84-3.62,8.16,8.16,0,0,1,7.16-3.71q6.8.25,5.69,9a2.93,2.93,0,0,1-1.44,2.05,1.59,1.59,0,0,1-.94.22Zm.25-2.7a1.54,1.54,0,0,1,.4-.07l9.58.22q-.11-5.58-5.15-5.76-2.45-.11-3.28,1A10.3,10.3,0,0,0,219.79,85.48Z"/><path class="cls-2" d="M256.39,70.62a4.13,4.13,0,0,1,.9-.88,2.45,2.45,0,0,1,.76-.38.59.59,0,0,1,.47,0,.38.38,0,0,1,.13.4l-2.3,20.59a8.47,8.47,0,0,1-1.55,4.25A7.51,7.51,0,0,1,248.27,98q-6.08,0-6.34-5.76a1.87,1.87,0,0,1,.38-.94,3.5,3.5,0,0,1,.85-.92,3.1,3.1,0,0,1,.79-.45q.68-.25.72.29.25,5,5.62,5a4.43,4.43,0,0,0,2.56-.54,3.13,3.13,0,0,0,.45-1,8.35,8.35,0,0,0,.31-1.48l2.3-20.59A2,2,0,0,1,256.39,70.62Z"/><path class="cls-2" d="M264.16,88.18q-.73,6.66,5.18,7.06a8.78,8.78,0,0,0,2.27-.07q1.31-.22,1.48-.5a4.43,4.43,0,0,1,.94-1,3.53,3.53,0,0,1,1.08-.67q.48-.16.64.13.21.47-.83,1.69a10.38,10.38,0,0,1-2.09,1.93,6.78,6.78,0,0,1-2,1A9.37,9.37,0,0,1,267,98q-7.05-.47-5.59-9a23.71,23.71,0,0,1,1.19-4.55,12.92,12.92,0,0,1,2.15-3.62Q268,77,272.26,77.13q6.78.25,4.9,9a3.3,3.3,0,0,1-1.62,2.05,1.67,1.67,0,0,1-1,.22Zm.49-2.7a1.61,1.61,0,0,1,.4-.07l9.56.22Q275,80,270,79.87q-2.44-.11-3.37,1A11.24,11.24,0,0,0,264.65,85.48Zm12.22-15.66a2.66,2.66,0,0,1,1.06-.56c.3-.06.48,0,.52.23a1.32,1.32,0,0,1-.35.9A23.75,23.75,0,0,1,274,75a3.19,3.19,0,0,1-1.1.67q-.52.16-.64-.11t.22-.83a5.88,5.88,0,0,1,1.23-1.31,14.85,14.85,0,0,0,2.21-2.59A4.58,4.58,0,0,1,276.87,69.82Z"/><path class="cls-2" d="M293.7,78.28a2.83,2.83,0,0,1,1.26-1q.9-.25.87.29-.72,11.7-1.08,14.22a27.14,27.14,0,0,1-.94,5.15,13.72,13.72,0,0,1-2.11,4.16,9.46,9.46,0,0,1-3.4,3,8.36,8.36,0,0,1-3.92.94q-4.07,0-5.58-2.52-.15-.25.13-.81a3.41,3.41,0,0,1,.81-1,3.22,3.22,0,0,1,1-.67c.34-.12.56-.1.68.07q1.29,2.2,4.93,2.23,2.59,0,3.56-1.37a14.15,14.15,0,0,0,1.94-6.16,9.18,9.18,0,0,1-3.8,3,5.74,5.74,0,0,1-3.58.23q-5.15-1.44-3.1-11.88a13.38,13.38,0,0,1,2.41-5.69q3-3.82,7.24-3.24A4.65,4.65,0,0,1,293.7,78.28Zm-1.4,12.38q.25-2.77.22-2.77a.4.4,0,0,1-.11-.4q.93-7.06-3.49-7.63a5.36,5.36,0,0,0-1.87,0,2.42,2.42,0,0,0-1.48.68,10.19,10.19,0,0,0-1.48,4.1,23.6,23.6,0,0,0-.5,5.22q.22,4.46,3.17,5.29a3.07,3.07,0,0,0,3.49-.83A13.41,13.41,0,0,0,292.12,91,2.6,2.6,0,0,1,292.3,90.67Z"/><path class="cls-2" d="M308.46,77.13q6.62.58,5.33,10.84a13.77,13.77,0,0,1-2.41,6.59A7.7,7.7,0,0,1,304.21,98q-7.27-.65-6.16-9.36a23.18,23.18,0,0,1,1-4.36,11.77,11.77,0,0,1,1.89-3.49A8.19,8.19,0,0,1,308.46,77.13Zm-2.09,2.74q-2.74-.25-3.71,1a8,8,0,0,0-1.08,2.25,17.79,17.79,0,0,0-.79,3.65q-1,7.85,5.51,8.42,2.48.22,3.28-.83a7.19,7.19,0,0,0,.83-1.78,14.59,14.59,0,0,0,.65-2.86Q312.27,80.37,306.37,79.87Z"/><path class="cls-2" d="M330.31,96.68a3.67,3.67,0,0,1-.9.88,2.58,2.58,0,0,1-.79.38q-.65.14-.58-.43l.25-2.34a9.52,9.52,0,0,1-2.45,2,5.86,5.86,0,0,1-3,.83q-6.16.07-5.26-8.5l.86-10a2.18,2.18,0,0,1,.47-1,3.54,3.54,0,0,1,.9-.9,2.73,2.73,0,0,1,.76-.38c.43-.12.64,0,.61.4l-.86,10.08q-.83,7.63,4.46,7.6a3.22,3.22,0,0,0,1.55-.29q1.26-.72,2.34-4v-.11L330,79.4a2,2,0,0,1,.47-1,3.78,3.78,0,0,1,.9-.86,2.57,2.57,0,0,1,.79-.38q.65-.14.58.4l-1.91,18.14A2.07,2.07,0,0,1,330.31,96.68Z"/><path class="cls-2" d="M58.86,24.45C47.3,24.17,34.4,28.76,27.42,38.38c-6.52,9-6.76,22.82,2.77,29.78,7.08,5.16,15.88,7.68,23.29,12.33A37.8,37.8,0,0,1,68,96.7c3.78,8.38,4.22,17.9,3.46,26.93-1.49,17.58-7.4,34.71-13.81,51l2.28-.3c-4-5.36-5.7-12.83-6.53-19.29C50.83,135,57.64,114.59,66.87,97c9.39-17.87,21.8-34,35.25-49,1.07-1.19-.69-3-1.77-1.77C79.76,69.27,60,95.94,52.84,126.51c-3.24,13.78-3.84,29,1.47,42.33a29.63,29.63,0,0,0,3.47,6.77,1.27,1.27,0,0,0,2.28-.3c8.42-21.39,17.7-46.81,13.16-70.21a39.75,39.75,0,0,0-13-22.73c-5.8-5-12.95-8-19.77-11.39-7.56-3.7-14.83-7.71-15.27-17.09C24.39,36.22,43.47,26.57,58.86,27a1.25,1.25,0,0,0,0-2.5Z"/><circle class="cls-2" cx="113.78" cy="35.85" r="3.87"/><path class="cls-3" d="M117.39,26.35a11.32,11.32,0,0,1,0,19c-1.35.87-.1,3,1.26,2.16,8.69-5.57,8.38-17.6,0-23.32-1.33-.91-2.58,1.26-1.26,2.16Z"/><path class="cls-3" d="M108.92,24.19c-8.38,5.72-8.69,17.76,0,23.32,1.36.87,2.61-1.29,1.26-2.16a11.31,11.31,0,0,1,0-19c1.32-.9.07-3.07-1.26-2.16Z"/></g></g></svg>