<?xml version="1.0" encoding="utf-8"?>
<!-- Generator: Adobe Illustrator 22.0.1, SVG Export Plug-In . SVG Version: 6.00 Build 0)  -->
<svg version="1.1" id="Calque_1" xmlns="http://www.w3.org/2000/svg" xmlns:xlink="http://www.w3.org/1999/xlink" x="0px" y="0px"
	 viewBox="0 0 263.8 134.4" style="enable-background:new 0 0 263.8 134.4;" xml:space="preserve">
<style type="text/css">
	.st0{fill:#604D8D;}
	.st1{fill:#D0BD6D;}
</style>
<g>
	<g>
		<path class="st0" d="M71.1,94.4l0.3-0.7c0.6,0.6,1.6,1,2.7,1c1.5,0,2.2-0.6,2.2-1.4c0-2.2-5-0.9-5-3.8c0-1.2,0.9-2.2,3-2.2
			c0.9,0,1.9,0.3,2.5,0.7l-0.3,0.7C75.8,88.2,75,88,74.3,88c-1.5,0-2.1,0.7-2.1,1.5c0,2.2,5,0.9,5,3.8c0,1.2-0.9,2.2-3,2.2
			C72.9,95.5,71.7,95,71.1,94.4z"/>
		<path class="st0" d="M87.9,91.4c0-2.4,1.8-4.1,4.2-4.1c2.4,0,4.2,1.7,4.2,4.1c0,2.4-1.8,4.1-4.2,4.1
			C89.7,95.5,87.9,93.7,87.9,91.4z M95.5,91.4c0-1.9-1.4-3.3-3.4-3.3c-1.9,0-3.4,1.4-3.4,3.3c0,1.9,1.5,3.3,3.4,3.3
			C94.1,94.7,95.5,93.3,95.5,91.4z"/>
		<path class="st0" d="M114.2,90.1c0,1.7-1.2,2.8-3.3,2.8h-2.2v2.5h-0.9v-8.1h3C112.9,87.3,114.2,88.4,114.2,90.1z M113.3,90.1
			c0-1.3-0.9-2-2.5-2h-2.1v4h2.1C112.5,92.1,113.3,91.4,113.3,90.1z"/>
		<path class="st0" d="M132.4,87.3v8.1h-0.8v-3.7h-5.1v3.7h-0.9v-8.1h0.9v3.6h5.1v-3.6H132.4z"/>
		<path class="st0" d="M150.1,95.4l-1.8-2.6c-0.2,0-0.4,0-0.6,0h-2.2v2.6h-0.9v-8.1h3c2.1,0,3.3,1,3.3,2.8c0,1.3-0.7,2.2-1.8,2.5
			l2,2.8H150.1z M150.1,90.1c0-1.3-0.9-2-2.5-2h-2.1v4h2.1C149.2,92.1,150.1,91.4,150.1,90.1z"/>
		<path class="st0" d="M161.8,91.4c0-2.4,1.8-4.1,4.2-4.1c2.4,0,4.2,1.7,4.2,4.1c0,2.4-1.8,4.1-4.2,4.1
			C163.6,95.5,161.8,93.7,161.8,91.4z M169.5,91.4c0-1.9-1.4-3.3-3.4-3.3c-1.9,0-3.4,1.4-3.4,3.3c0,1.9,1.5,3.3,3.4,3.3
			C168,94.7,169.5,93.3,169.5,91.4z"/>
		<path class="st0" d="M181.8,87.3h0.9v7.3h4.5v0.7h-5.4V87.3z"/>
		<path class="st0" d="M197.3,91.4c0-2.4,1.8-4.1,4.2-4.1c2.4,0,4.2,1.7,4.2,4.1c0,2.4-1.8,4.1-4.2,4.1
			C199.1,95.5,197.3,93.7,197.3,91.4z M205,91.4c0-1.9-1.4-3.3-3.4-3.3c-1.9,0-3.4,1.4-3.4,3.3c0,1.9,1.5,3.3,3.4,3.3
			C203.5,94.7,205,93.3,205,91.4z"/>
		<path class="st0" d="M223,91.4h0.8v3.1c-0.8,0.7-1.8,1-3,1c-2.5,0-4.3-1.7-4.3-4.1c0-2.4,1.8-4.1,4.3-4.1c1.2,0,2.3,0.4,3,1.2
			l-0.5,0.5c-0.7-0.7-1.5-0.9-2.4-0.9c-2,0-3.5,1.4-3.5,3.3c0,1.9,1.5,3.3,3.4,3.3c0.8,0,1.5-0.2,2.1-0.6V91.4z"/>
		<path class="st0" d="M235.8,91.9v-4.6h0.9v4.6c0,1.9,0.9,2.8,2.5,2.8c1.6,0,2.5-0.9,2.5-2.8v-4.6h0.8v4.6c0,2.3-1.2,3.5-3.3,3.5
			C237,95.5,235.8,94.3,235.8,91.9z"/>
		<path class="st0" d="M260.3,94.7v0.7h-5.7v-8.1h5.5v0.7h-4.7v2.9h4.2v0.7h-4.2v3H260.3z"/>
	</g>
	<g>
		<path class="st0" d="M78.6,103.8v8.1h-0.8v-3.7h-5.1v3.7h-0.9v-8.1h0.9v3.6h5.1v-3.6H78.6z"/>
		<path class="st0" d="M88.8,109.1v2.8H88v-2.8l-3.2-5.3h0.9l2.8,4.5l2.8-4.5H92L88.8,109.1z"/>
		<path class="st0" d="M104.3,106.6c0,1.7-1.2,2.8-3.3,2.8h-2.2v2.5H98v-8.1h3C103,103.8,104.3,104.8,104.3,106.6z M103.4,106.6
			c0-1.3-0.9-2-2.5-2h-2.1v4h2.1C102.6,108.6,103.4,107.8,103.4,106.6z"/>
		<path class="st0" d="M117.7,103.8v8.1H117l-5.2-6.6v6.6h-0.9v-8.1h0.7l5.2,6.6v-6.6H117.7z"/>
		<path class="st0" d="M124.4,107.8c0-2.4,1.8-4.1,4.2-4.1c2.4,0,4.2,1.7,4.2,4.1c0,2.4-1.8,4.1-4.2,4.1
			C126.2,111.9,124.4,110.2,124.4,107.8z M132,107.8c0-1.9-1.4-3.3-3.4-3.3c-1.9,0-3.4,1.4-3.4,3.3c0,1.9,1.5,3.3,3.4,3.3
			C130.5,111.2,132,109.8,132,107.8z"/>
		<path class="st0" d="M141,104.5h-2.8v-0.7h6.5v0.7h-2.8v7.3H141V104.5z"/>
		<path class="st0" d="M157.6,103.8v8.1h-0.8v-3.7h-5.1v3.7h-0.9v-8.1h0.9v3.6h5.1v-3.6H157.6z"/>
		<path class="st0" d="M170.7,111.1v0.7H165v-8.1h5.5v0.7h-4.7v2.9h4.2v0.7h-4.2v3H170.7z M167.8,103.1H167l1.6-1.4h1.1L167.8,103.1
			z"/>
		<path class="st0" d="M183,111.9l-1.8-2.6c-0.2,0-0.4,0-0.6,0h-2.2v2.6h-0.9v-8.1h3c2.1,0,3.3,1,3.3,2.8c0,1.3-0.7,2.2-1.8,2.5
			l2,2.8H183z M182.9,106.6c0-1.3-0.9-2-2.5-2h-2.1v4h2.1C182.1,108.6,182.9,107.8,182.9,106.6z"/>
		<path class="st0" d="M195.6,109.7h-4.5l-1,2.2h-0.9l3.7-8.1h0.8l3.7,8.1h-0.9L195.6,109.7z M195.3,109l-1.9-4.3l-1.9,4.3H195.3z"
			/>
		<path class="st0" d="M209.9,106.6c0,1.7-1.2,2.8-3.3,2.8h-2.2v2.5h-0.9v-8.1h3C208.7,103.8,209.9,104.8,209.9,106.6z M209.1,106.6
			c0-1.3-0.9-2-2.5-2h-2.1v4h2.1C208.2,108.6,209.1,107.8,209.1,106.6z"/>
		<path class="st0" d="M222.3,111.1v0.7h-5.7v-8.1h5.5v0.7h-4.7v2.9h4.2v0.7h-4.2v3H222.3z"/>
		<path class="st0" d="M229,108.4v-4.6h0.9v4.6c0,1.9,0.9,2.8,2.5,2.8c1.6,0,2.5-0.9,2.5-2.8v-4.6h0.8v4.6c0,2.3-1.2,3.5-3.3,3.5
			C230.3,111.9,229,110.7,229,108.4z"/>
		<path class="st0" d="M244.4,104.5h-2.8v-0.7h6.5v0.7h-2.8v7.3h-0.9V104.5z"/>
		<path class="st0" d="M259.9,111.1v0.7h-5.7v-8.1h5.5v0.7h-4.7v2.9h4.2v0.7h-4.2v3H259.9z"/>
	</g>
	<g>
		<path class="st0" d="M88.9,51.3c-0.2,0.3-0.4,0.6-0.7,0.9c-0.3,0.3-0.6,0.4-0.9,0.5s-0.5,0.1-0.5-0.1c-0.7-1.3-1.6-2.4-2.8-3.2
			c-1.2-0.8-2.5-1.3-3.8-1.5c-0.8-0.1-1.6,0-2.2,0.2c-0.6,0.2-1.1,0.4-1.3,0.7s-0.4,0.7-0.5,1.4c-0.1,0.7,0,1.4,0.3,2.2
			c0.3,0.8,0.9,1.4,1.6,2c0.7,0.5,1.6,1,2.7,1.4c0.1,0,0.4,0.2,1.2,0.4s1.3,0.5,1.6,0.6c2.6,1.1,4,2.7,4.3,4.8
			c0.2,1.4-0.1,2.8-1,4.2c-0.5,0.8-1.1,1.5-1.9,2c-1.9,1.4-3.9,1.9-6.1,1.6c-1.5-0.3-2.8-0.9-4.1-1.8s-2.2-2.1-2.8-3.5
			c-0.1-0.2,0-0.4,0.1-0.7c0.2-0.3,0.4-0.6,0.7-0.8c0.3-0.3,0.6-0.4,0.8-0.5c0.3-0.1,0.4-0.1,0.5,0.1c0.7,1.3,1.6,2.4,2.7,3.3
			c1.2,0.9,2.4,1.5,3.6,1.7s2.3,0.2,3.1-0.1c0.8-0.3,1.4-0.6,1.6-1c0.5-0.7,0.6-1.6,0.5-2.7c-0.3-1.9-1.6-3.3-4-4.4
			c-0.4-0.2-0.9-0.3-1.6-0.6c-1.8-0.6-3.2-1.2-4-1.8c-0.8-0.6-1.4-1.3-1.8-2.2c-0.4-0.9-0.5-1.9-0.3-3c0.2-1.1,0.8-2.1,1.8-3.2
			c1.8-1.8,3.8-2.6,6.2-2.4c1.5,0.2,2.9,0.7,4.1,1.6c1.3,0.9,2.2,2,3,3.4C89.1,50.8,89,51,88.9,51.3z"/>
		<path class="st0" d="M103.8,66.2c0.2,0,0.4,0,0.4,0.2c0,0.2,0,0.4-0.3,0.8c-0.2,0.3-0.6,0.7-1.1,1.1s-1,0.7-1.6,0.9
			c-1.1,0.4-1.8,0.2-2-0.6c-0.1-0.3-0.2-1-0.1-1.9c-1,1.2-2.1,2.1-3.1,2.4c-1,0.4-2,0.4-2.9,0.2c-2.8-0.8-3.7-4.1-2.6-9.8
			c0.4-1.9,1-3.5,2-4.7c1.6-2.1,3.6-3,6-2.7c1,0.1,1.8,0.5,2.3,1.1c0.5-0.6,0.9-1,1.4-1.1c0.2,0,0.3,0,0.4,0s0.1,0.2,0.1,0.3
			c-1.1,8.4-1.6,13.1-1.2,14.1c0.2,0.5,0.4,0.6,0.8,0.4c0.2-0.1,0.4-0.2,0.7-0.5S103.5,66.2,103.8,66.2z M99.3,63.7
			c0.1-1.6,0.2-2.6,0.3-3c0.5-3.9-0.4-6-2.9-6.3c-0.6-0.1-1.1-0.1-1.5,0c-0.6,0.1-1,0.3-1.2,0.6c-0.5,0.6-0.9,1.8-1.2,3.4
			c-0.3,1.6-0.5,3.1-0.4,4.3c0.1,2.5,1,3.9,2.6,4.4c1.2,0.4,2.2,0.1,2.9-0.7C98.3,65.8,98.8,64.9,99.3,63.7z"/>
		<path class="st0" d="M108,53.2c0.2-0.3,0.5-0.6,0.7-0.7s0.5-0.3,0.7-0.3c0.4-0.1,0.5,0,0.5,0.3l-0.2,2c0.6-0.6,1.2-1.2,2-1.6
			c0.8-0.5,1.6-0.7,2.4-0.7c3.4,0,4.8,2.3,4.3,7l-0.7,8.3c0,0.2-0.1,0.5-0.4,0.8c-0.2,0.3-0.5,0.6-0.7,0.7c-0.3,0.2-0.5,0.3-0.6,0.3
			c-0.4,0.1-0.5,0-0.5-0.3l0.7-8.3c0.5-4.2-0.8-6.3-3.7-6.3c-0.6,0-1,0.1-1.3,0.2c-0.7,0.4-1.3,1.5-1.9,3.3c0,0,0,0,0,0.1l-1,9.5
			c0,0.2-0.1,0.5-0.4,0.8c-0.2,0.3-0.5,0.5-0.7,0.7c-0.3,0.2-0.5,0.3-0.7,0.3c-0.4,0.1-0.5,0-0.5-0.4l1.6-14.9
			C107.6,53.8,107.7,53.5,108,53.2z"/>
		<path class="st0" d="M132.4,44.4c0.2-0.3,0.5-0.5,0.7-0.7s0.5-0.3,0.6-0.3c0.4-0.1,0.5,0,0.5,0.3l-2,23.7c0,0.2-0.1,0.5-0.4,0.8
			s-0.5,0.6-0.7,0.7c-0.3,0.2-0.5,0.3-0.6,0.3c-0.4,0.1-0.5,0-0.5-0.3l0.2-2.3c-1,1.2-2,2.1-3.1,2.5c-1.1,0.4-2.1,0.5-3,0.2
			c-2.8-0.8-3.7-4.1-2.6-9.8c0.4-1.9,1-3.5,2-4.7c1.6-2.1,3.6-3,6-2.7c0.7,0.1,1.3,0.3,1.8,0.7l0.7-7.6
			C132,45,132.2,44.7,132.4,44.4z M130.9,57.9c-0.3-2.1-1.3-3.3-3.2-3.5c-0.6-0.1-1.1,0-1.5,0c-0.6,0.1-1,0.3-1.2,0.6
			c-0.5,0.7-0.9,1.7-1.2,3.1c-1,5.3-0.3,8.2,2.1,8.9c1.2,0.4,2.2,0.1,2.9-0.7c0.5-0.6,1-1.5,1.5-2.8c0-0.1,0-0.1,0.1-0.2L130.9,57.9
			z"/>
		<path class="st0" d="M137.4,53.2c0.2-0.3,0.5-0.6,0.7-0.7s0.5-0.3,0.7-0.3c0.4-0.1,0.5,0,0.5,0.3l-0.1,1.3
			c1.5-1.3,3.1-1.8,4.7-1.7c0.3,0,0.3,0.2,0.2,0.6c-0.2,0.5-0.5,0.9-1,1.2c-0.5,0.3-0.8,0.4-0.9,0.4c-1-0.1-1.9,0.1-2.6,0.6
			c-0.3,0.3-0.6,0.9-0.7,1.8l-1.1,10.6c0,0.2-0.1,0.5-0.4,0.8c-0.2,0.3-0.5,0.5-0.7,0.7c-0.3,0.2-0.5,0.3-0.7,0.3
			c-0.4,0.1-0.5,0-0.5-0.4l1.1-10.4c0,0,0-0.1,0-0.2l0.4-4.3C137.1,53.8,137.2,53.5,137.4,53.2z"/>
		<path class="st0" d="M146.9,53.2c0.2-0.3,0.5-0.6,0.7-0.7s0.5-0.3,0.7-0.3c0.4-0.1,0.5,0,0.5,0.3l-1.6,15c0,0.2-0.1,0.5-0.4,0.8
			c-0.2,0.3-0.5,0.5-0.7,0.7c-0.3,0.2-0.5,0.3-0.7,0.3c-0.4,0.1-0.5,0-0.5-0.4l1.6-14.9C146.5,53.8,146.7,53.5,146.9,53.2z
			 M147,48.1c0.2-0.3,0.5-0.6,0.7-0.7c0.3-0.2,0.5-0.3,0.7-0.3c0.4-0.1,0.5,0,0.5,0.3l-0.1,2.1c0,0.2-0.1,0.5-0.4,0.8
			c-0.2,0.3-0.5,0.6-0.7,0.7s-0.5,0.3-0.7,0.3c-0.4,0.1-0.5,0-0.5-0.3l0.1-2.1C146.7,48.7,146.8,48.4,147,48.1z"/>
		<path class="st0" d="M152.5,53.2c0.2-0.3,0.5-0.6,0.7-0.7s0.5-0.3,0.7-0.3c0.4-0.1,0.5,0,0.5,0.3l-0.2,2c0.6-0.6,1.2-1.2,2-1.6
			c0.8-0.5,1.6-0.7,2.4-0.7c3.4,0,4.8,2.3,4.3,7l-0.7,8.3c0,0.2-0.1,0.5-0.4,0.8c-0.2,0.3-0.5,0.6-0.7,0.7c-0.3,0.2-0.5,0.3-0.6,0.3
			c-0.4,0.1-0.5,0-0.5-0.3l0.7-8.3c0.5-4.2-0.8-6.3-3.7-6.3c-0.6,0-1,0.1-1.3,0.2c-0.7,0.4-1.3,1.5-1.9,3.3c0,0,0,0,0,0.1l-1,9.5
			c0,0.2-0.1,0.5-0.4,0.8c-0.2,0.3-0.5,0.5-0.7,0.7c-0.3,0.2-0.5,0.3-0.7,0.3c-0.4,0.1-0.5,0-0.5-0.4l1.6-14.9
			C152.2,53.8,152.3,53.5,152.5,53.2z"/>
		<path class="st0" d="M168.1,61.3c-0.1,3.7,1.5,5.6,4.8,5.8c0.7,0.1,1.3,0,1.9-0.1c0.7-0.1,1.1-0.3,1.2-0.4
			c0.2-0.3,0.4-0.6,0.7-0.9c0.3-0.3,0.6-0.5,0.8-0.5c0.3-0.1,0.4-0.1,0.5,0.1c0.1,0.3,0,0.7-0.6,1.4c-0.5,0.7-1,1.2-1.6,1.6
			c-0.5,0.4-1.1,0.6-1.6,0.8c-1.1,0.3-2.2,0.4-3.1,0.3c-3.9-0.3-5.6-2.7-5.3-7.4c0.1-1.4,0.3-2.7,0.7-3.8c0.3-1.1,0.8-2.1,1.5-3
			c1.6-2.1,3.5-3.2,5.9-3.1c3.7,0.1,5.3,2.6,4.7,7.4c-0.2,0.8-0.6,1.4-1.2,1.7c-0.2,0.1-0.5,0.2-0.8,0.2L168.1,61.3z M168.3,59
			c0.1,0,0.2-0.1,0.3-0.1l7.9,0.2c-0.1-3.1-1.5-4.6-4.2-4.7c-1.3-0.1-2.2,0.2-2.7,0.9C169,56.1,168.5,57.3,168.3,59z"/>
		<path class="st0" d="M198.4,46.8c0.2-0.3,0.5-0.6,0.7-0.7s0.5-0.3,0.6-0.3c0.2,0,0.3,0,0.4,0c0.1,0.1,0.1,0.2,0.1,0.3l-1.9,17
			c-0.1,1.4-0.6,2.5-1.3,3.5c-1.3,1.9-3.1,2.8-5.4,2.8c-3.3,0-5.1-1.6-5.2-4.7c0-0.2,0.1-0.5,0.3-0.8c0.2-0.3,0.4-0.6,0.7-0.8
			c0.3-0.2,0.5-0.3,0.7-0.4c0.4-0.1,0.6-0.1,0.6,0.2c0.1,2.7,1.7,4.1,4.6,4.2c1,0,1.7-0.1,2.1-0.4c0.1-0.1,0.2-0.4,0.4-0.9
			c0.1-0.4,0.2-0.8,0.3-1.2l1.9-17C198.1,47.4,198.2,47.1,198.4,46.8z"/>
		<path class="st0" d="M204.9,61.3c-0.4,3.7,1,5.6,4.3,5.8c0.7,0.1,1.3,0,1.9-0.1c0.7-0.1,1.1-0.3,1.2-0.4c0.2-0.3,0.4-0.6,0.8-0.9
			c0.3-0.3,0.6-0.5,0.9-0.5c0.3-0.1,0.4-0.1,0.5,0.1c0.1,0.3-0.1,0.7-0.7,1.4c-0.6,0.7-1.1,1.2-1.7,1.6s-1.1,0.6-1.7,0.8
			c-1.2,0.3-2.2,0.4-3.1,0.3c-3.9-0.3-5.4-2.7-4.6-7.4c0.2-1.4,0.6-2.7,1-3.8c0.4-1.1,1-2.1,1.8-3c1.8-2.1,3.8-3.2,6.2-3.1
			c3.7,0.1,5.1,2.6,4,7.4c-0.2,0.8-0.7,1.4-1.3,1.7c-0.2,0.1-0.5,0.2-0.8,0.2L204.9,61.3z M205.3,59c0.1,0,0.3-0.1,0.3-0.1l7.9,0.2
			c0.2-3.1-1.1-4.6-3.8-4.7c-1.3-0.1-2.3,0.2-2.8,0.9C206.2,56.1,205.7,57.3,205.3,59z M215.3,46.1c0.3-0.3,0.6-0.4,0.9-0.5
			c0.3,0,0.4,0,0.4,0.2c0,0.2-0.1,0.4-0.3,0.7c-1.1,1.5-2.2,2.8-3.4,3.8c-0.3,0.3-0.6,0.5-0.9,0.5c-0.3,0.1-0.5,0.1-0.5-0.1
			c-0.1-0.1,0-0.4,0.2-0.7c0.2-0.3,0.5-0.7,1-1.1s1.1-1.1,1.8-2.1C214.7,46.7,215,46.4,215.3,46.1z"/>
		<path class="st0" d="M229.2,53.1c0.4-0.5,0.7-0.8,1-0.9c0.5-0.1,0.7-0.1,0.7,0.2c-0.4,6.4-0.7,10.3-0.9,11.7
			c-0.2,1.6-0.4,3.1-0.8,4.2c-0.4,1.2-0.9,2.3-1.7,3.4s-1.7,1.9-2.8,2.4c-1.1,0.5-2.1,0.8-3.2,0.8c-2.2,0-3.8-0.7-4.6-2.1
			c-0.1-0.1,0-0.4,0.1-0.7s0.4-0.6,0.7-0.9c0.3-0.3,0.6-0.4,0.9-0.5c0.3-0.1,0.5-0.1,0.6,0.1c0.7,1.2,2.1,1.8,4.1,1.8
			c1.4,0,2.4-0.4,2.9-1.1c0.8-1,1.3-2.7,1.6-5.1c-1,1.3-2.1,2.1-3.1,2.5s-2,0.5-3,0.2c-2.8-0.8-3.7-4.1-2.6-9.8c0.4-1.9,1-3.5,2-4.7
			c1.6-2.1,3.6-3,6-2.7C227.9,52.3,228.6,52.6,229.2,53.1z M228,63.3c0.1-1.5,0.2-2.3,0.2-2.3c-0.1-0.1-0.1-0.2-0.1-0.3
			c0.5-3.9-0.4-6-2.9-6.3c-0.6-0.1-1.1-0.1-1.5,0c-0.6,0.1-1,0.3-1.2,0.6c-0.5,0.6-0.9,1.8-1.2,3.4c-0.3,1.6-0.5,3.1-0.4,4.3
			c0.1,2.5,1,3.9,2.6,4.4c1.2,0.4,2.2,0.1,2.9-0.7c0.5-0.6,1-1.5,1.5-2.8C227.9,63.5,228,63.4,228,63.3z"/>
		<path class="st0" d="M241.4,52.2c3.6,0.3,5.1,3.3,4.4,8.9c-0.3,2.3-1,4.1-2,5.4c-1.6,2.1-3.5,3-5.9,2.8c-4-0.4-5.7-2.9-5.1-7.7
			c0.2-1.4,0.4-2.6,0.8-3.6c0.3-1,0.9-2,1.6-2.9C236.8,52.9,238.9,51.9,241.4,52.2z M239.6,54.4c-1.5-0.1-2.5,0.1-3.1,0.9
			c-0.3,0.4-0.6,1-0.9,1.9s-0.5,1.9-0.7,3c-0.6,4.3,1,6.6,4.5,6.9c1.4,0.1,2.3-0.1,2.7-0.7c0.2-0.3,0.4-0.8,0.7-1.5s0.4-1.5,0.5-2.4
			C244.2,57.4,242.9,54.7,239.6,54.4z"/>
		<path class="st0" d="M259.4,68.3c-0.2,0.3-0.5,0.6-0.7,0.7c-0.3,0.2-0.5,0.3-0.7,0.3c-0.4,0.1-0.5,0-0.5-0.4l0.2-1.9
			c-0.6,0.6-1.2,1.2-2,1.6c-0.8,0.5-1.6,0.7-2.4,0.7c-3.4,0-4.8-2.3-4.3-7l0.7-8.3c0-0.2,0.1-0.5,0.4-0.8c0.2-0.3,0.5-0.6,0.7-0.7
			s0.5-0.3,0.6-0.3c0.4-0.1,0.5,0,0.5,0.3l-0.7,8.3c-0.5,4.2,0.8,6.3,3.7,6.3c0.6,0,1-0.1,1.3-0.2c0.7-0.4,1.3-1.5,1.9-3.3
			c0,0,0,0,0-0.1l1-9.5c0-0.2,0.1-0.5,0.4-0.8s0.5-0.5,0.7-0.7s0.5-0.3,0.7-0.3c0.4-0.1,0.5,0,0.5,0.3l-1.6,15
			C259.7,67.7,259.6,67.9,259.4,68.3z"/>
	</g>
	<g>
		<g>
			<path class="st0" d="M33.2,6.1C18.1,6.2,0.7,16.2,3.4,33.6C5,43.8,18.4,46.9,26,51.2c10.7,6,16.7,15.3,17.5,27.4
				c1.2,17.5-5.2,35.3-11.5,51.4c0.8-0.1,1.5-0.2,2.3-0.3c-3.2-4.3-4.6-10.3-5.3-15.5C26.8,97.7,32.3,81,39.8,66.6
				C47.5,51.8,57.8,38.4,69,26c1.1-1.2-0.7-3-1.8-1.8c-17,18.9-33.2,40.8-39.2,66c-2.7,11.4-3.2,24.1,1.2,35.2
				c0.8,1.9,1.6,3.9,2.9,5.6c0.7,0.9,1.9,0.7,2.3-0.3c5.5-13.9,10.5-28.5,11.5-43.5c0.6-8.4-0.2-17.2-4.3-24.6
				c-5.9-10.6-16.9-14.4-27-19.8c-5-2.7-9-6-8.8-12.2c0.1-5.9,2.4-11.4,7-15.1c5.5-4.6,13.4-6.7,20.5-6.8
				C34.8,8.6,34.8,6.1,33.2,6.1L33.2,6.1z"/>
			<g>
				<path class="st0" d="M74.5,14.1c0-1.8,1.4-3.2,3.2-3.2c1.8,0,3.2,1.4,3.2,3.2c0,1.8-1.4,3.2-3.2,3.2
					C75.9,17.3,74.5,15.9,74.5,14.1z"/>
				<path class="st0" d="M77.7,17.8c-2,0-3.7-1.7-3.7-3.7c0-2,1.7-3.7,3.7-3.7c2,0,3.7,1.7,3.7,3.7C81.4,16.2,79.7,17.8,77.7,17.8z
					 M77.7,11.5c-1.5,0-2.7,1.2-2.7,2.7c0,1.5,1.2,2.7,2.7,2.7c1.5,0,2.7-1.2,2.7-2.7C80.4,12.7,79.2,11.5,77.7,11.5z"/>
			</g>
		</g>
		<g>
			<path class="st1" d="M80.2,4.7c5.7,4.6,6.1,14.1,0.3,18.5c-1.3,1,0,3.1,1.3,2.2C88.9,19.9,89,8.6,82,2.9
				C80.7,1.9,78.9,3.7,80.2,4.7L80.2,4.7z"/>
			<path class="st1" d="M73.2,2.9c-7,5.7-6.9,17,0.3,22.4c1.3,1,2.5-1.2,1.3-2.2C68.8,18.7,69.3,9.3,75,4.7
				C76.2,3.7,74.5,1.9,73.2,2.9L73.2,2.9z"/>
		</g>
	</g>
</g>
</svg>
