<?xml version="1.0" encoding="utf-8"?>
<!-- Generator: Adobe Illustrator 22.0.1, SVG Export Plug-In . SVG Version: 6.00 Build 0)  -->
<svg version="1.1" id="Calque_1" xmlns="http://www.w3.org/2000/svg" xmlns:xlink="http://www.w3.org/1999/xlink" x="0px" y="0px"
	 viewBox="0 0 64 40.4" style="enable-background:new 0 0 64 40.4;" xml:space="preserve">
<style type="text/css">
	.st0{fill:#D0BD6D;}
</style>
<title>picto-groupe</title>
<path class="st0" d="M31.6,0c-3.4,0-6.4,2.1-7.5,5.3l0,0c-0.8,1.1-1.2,2.4-1.2,3.8c0,0.2,0.1,0.4,0.3,0.5h0.2c0.1,0,0.2,0,0.2-0.1
	v9.6c0,0.3,0.2,0.5,0.4,0.5c0,0,0,0,0.1,0h5.2v1.2L28,22.2h-3.2c-0.9,0-1.9,0.2-2.7,0.6c-1-0.4-2-0.6-3-0.6h-1.2l-1.6-1.6
	c-0.1-0.1-0.2-0.1-0.3-0.1v-1.2c2.2-0.8,3.6-2.9,3.6-5.2v-0.9h0.2c0.6,0,1.2-0.5,1.2-1.1c0,0,0-0.1,0-0.1V9.9c0-0.6-0.5-1.2-1.1-1.2
	c0,0-0.1,0-0.1,0h-0.2V4.2c0-0.6-0.5-1.2-1.1-1.2c0,0-0.1,0-0.1,0h-0.3c-0.3-0.8-1-1.4-1.9-1.4H9.1c-0.5,0-0.9-0.3-0.9-0.8
	c0-0.2-0.2-0.5-0.4-0.5c-0.2-0.1-0.4,0-0.5,0.1C6.7,1,6.4,1.8,6.4,2.6v1.9c0,0.1,0.1,0.2,0.1,0.3v0.1C6.6,5,6.6,5.1,6.7,5.2v0.1
	l0.2,0.2l0,0v3H7C6.4,8.5,5.8,9,5.8,9.6c0,0,0,0.1,0,0.1v2.1c0,0.6,0.5,1.2,1.1,1.2c0,0,0.1,0,0.1,0h0.2v0.9c0,2.3,1.4,4.4,3.6,5.2
	v1.3c-0.1,0-0.1,0.1-0.2,0.1L9,22.2H7.7c-4.3,0-7.7,3.4-7.7,7.7v10c0,0.3,0.2,0.5,0.4,0.5c0,0,0,0,0.1,0h63c0.3,0,0.5-0.2,0.5-0.4
	c0,0,0,0,0-0.1v-10c0-4.3-3.4-7.7-7.7-7.7l0,0h-1.2l-1.6-1.6c-0.1-0.1-0.2-0.1-0.3-0.1V19c2.2-1,3.6-3.3,3.6-5.7v-0.2H57
	c0.6,0,1.2-0.5,1.2-1.1c0,0,0-0.1,0-0.1V9.8c0-0.6-0.5-1.2-1.1-1.2c0,0-0.1,0-0.1,0h-0.2V8.1c0.4-0.2,0.7-0.6,0.7-1.1V4.9
	c0-1-0.9-1.9-1.9-1.9l0,0h-7.9c-0.5,0-0.9-0.4-0.9-0.9v0c0-0.3-0.2-0.5-0.4-0.5c0,0,0,0-0.1,0c-1.4,0-2.6,1.1-2.6,2.6c0,0,0,0,0,0
	v2.9c0,0.5,0.3,0.9,0.7,1.1v0.5h-0.2c-0.6,0-1.2,0.5-1.2,1.1c0,0,0,0.1,0,0.1V12c0,0.6,0.5,1.2,1.1,1.2c0,0,0.1,0,0.1,0h0.2v0.1
	c0,2.4,1.3,4.6,3.5,5.6v1.6c-0.1,0-0.1,0.1-0.2,0.1l-1.5,1.5h-1.4c-1,0-2.1,0.2-3,0.6c-0.8-0.4-1.8-0.6-2.7-0.6H36l-1.4-1.4v-1.2
	h5.2c0.3,0,0.5-0.2,0.5-0.4c0,0,0,0,0-0.1V8c0.1-4.4-3.4-7.9-7.8-8c0,0-0.1,0-0.1,0L31.6,0z M31.6,1h0.8c3.8,0,6.9,3,6.9,6.8
	c0,0.1,0,0.1,0,0.2v10.6h-4.7v-0.2c0.2-0.1,0.5-0.3,0.7-0.4l1.5-1.2c0.8-0.6,1.3-1.6,1.3-2.7V8.2c-0.1-1-0.9-1.8-1.9-1.8
	c-0.9,0-1.6-0.7-1.6-1.6c0,0,0,0,0,0c0-0.3-0.2-0.5-0.5-0.5s-0.5,0.2-0.5,0.5c0,0.9-0.7,1.6-1.6,1.6c0,0,0,0,0,0h-4
	c-0.6,0-1.2,0.1-1.8,0.3c-0.1,0-0.2,0-0.2,0.1c-0.7,0.2-1.4,0.6-2,1c0.4-1.6,1.4-2.9,2.8-3.7c0.8-0.4,1.7-0.6,2.6-0.6
	c0.3,0,0.5-0.2,0.5-0.5s-0.2-0.5-0.5-0.5c-1,0-2,0.2-2.9,0.7C27.8,1.8,29.7,1,31.6,1z M7.6,1.8C8,2.2,8.5,2.5,9.1,2.5h7.2
	c0.5,0,0.9,0.4,0.9,0.9c0,0.3,0.2,0.5,0.4,0.5c0,0,0,0,0.1,0h0.7c0.1,0,0.2,0.1,0.2,0.2v4.5l-0.1-0.1c-0.2-0.2-0.3-0.5-0.3-0.8
	c0-0.6-0.5-1.2-1.1-1.2c0,0-0.1,0-0.1,0H9.8C9.2,6.5,8.6,7,8.6,7.6c0,0,0,0.1,0,0.1v0.1c0,0.3-0.1,0.5-0.3,0.7L8.1,8.7V6.1H9
	c0.3,0,0.5-0.2,0.5-0.5S9.3,5.1,9,5.1H8.4C8.2,5.1,8,5,7.8,4.9c-0.1,0-0.1,0-0.1-0.1l0,0L7.5,4.6V4.5c0-0.1-0.1-0.2-0.1-0.3V2.8
	C7.4,2.5,7.5,2.1,7.6,1.8z M46,2.4c0.2,0.8,1,1.4,1.8,1.4h7.9c0.5,0,0.9,0.4,0.9,0.9v0v2.1c0,0.1-0.1,0.2-0.2,0.2H45
	c-0.1,0-0.2-0.1-0.2-0.2V3.9C44.8,3.2,45.3,2.6,46,2.4z M34.1,6.3c0.5,0.7,1.3,1.1,2.1,1.1c0.5,0,0.9,0.4,0.9,0.9c0,0,0,0,0,0v5.8
	c0,0.7-0.4,1.4-0.9,1.9l-1.5,1.2c-1.6,1.2-3.8,1.2-5.4,0L27.7,16c-0.6-0.4-1-1.1-1-1.9V7.6l0,0c0.4-0.1,0.9-0.2,1.3-0.2h4
	C32.8,7.4,33.6,7,34.1,6.3z M9.8,7.5H17c0.1,0,0.2,0.1,0.2,0.3c0,0.5,0.2,1,0.6,1.4l0.8,0.8v4.1c0,2.5-2,4.5-4.5,4.5c0,0,0,0,0,0
	h-1.4c-2.5,0-4.5-2-4.5-4.5c0,0,0,0,0,0V10L9,9.2c0.4-0.4,0.6-0.9,0.6-1.4V7.7C9.6,7.6,9.7,7.5,9.8,7.5z M34.5,7.9
	c-0.6,0-1.2,0.2-1.6,0.7c-0.2,0.2-0.2,0.5,0,0.7s0.5,0.2,0.7,0l0,0c0.5-0.5,1.3-0.5,1.8,0c0,0,0,0,0,0c0.1,0.1,0.2,0.1,0.4,0.1
	c0.1,0,0.3,0,0.4-0.1c0.2-0.2,0.2-0.5,0-0.7c0,0,0,0,0,0C35.8,8.1,35.1,7.9,34.5,7.9z M29.5,7.9c-0.6,0-1.2,0.2-1.6,0.6
	c-0.2,0.2-0.2,0.5,0,0.7c0,0,0,0,0,0c0.1,0.1,0.2,0.1,0.4,0.1s0.3,0,0.4-0.1c0.5-0.5,1.3-0.5,1.8,0c0,0,0,0,0,0
	c0.2,0.2,0.5,0.2,0.7,0s0.2-0.5,0-0.7C30.7,8.1,30.1,7.9,29.5,7.9z M25.8,7.9v6.2c0,1.1,0.5,2.1,1.4,2.7l1.6,1.2
	c0.2,0.1,0.4,0.3,0.6,0.4v0.2h-4.7v-10C25,8.3,25.4,8.1,25.8,7.9z M45.5,8.1H56v0.4h-3.4c-0.6,0-1.1,0.3-1.4,0.8h-0.5
	c-0.2,0-0.3,0-0.4,0.1c-0.3-0.5-0.8-0.8-1.4-0.8h-3.4V8.1z M10.8,8.6L10.8,8.6c-0.7,0-1.4,0.3-1.8,0.9C8.8,9.7,8.9,10,9.1,10.2
	c0,0,0,0,0,0c0.2,0.1,0.6,0.1,0.7-0.1c0.4-0.6,1.2-0.7,1.8-0.2c0.1,0.1,0.2,0.2,0.2,0.2c0.1,0.1,0.2,0.2,0.4,0.2
	c0.1,0,0.2,0,0.3-0.1c0.2-0.2,0.3-0.5,0.1-0.7c0,0,0,0,0,0C12.2,8.9,11.5,8.6,10.8,8.6z M15.8,8.6L15.8,8.6c-0.7,0-1.4,0.3-1.8,0.9
	c-0.2,0.2-0.1,0.5,0.1,0.7c0.2,0.2,0.5,0.1,0.7-0.1c0.4-0.6,1.2-0.7,1.8-0.2c0.1,0.1,0.2,0.2,0.2,0.2c0.1,0.1,0.2,0.2,0.4,0.2
	c0.1,0,0.2,0,0.3-0.1c0.2-0.2,0.3-0.5,0.1-0.7c0,0,0,0,0,0C17.2,8.9,16.5,8.6,15.8,8.6z M29.5,9.5c-0.4,0-0.7,0.3-0.7,0.7
	s0.3,0.7,0.7,0.7c0.4,0,0.7-0.3,0.7-0.7C30.2,9.8,29.9,9.5,29.5,9.5C29.5,9.5,29.5,9.5,29.5,9.5z M34.5,9.5c-0.4,0-0.7,0.3-0.7,0.7
	c0,0.4,0.3,0.7,0.7,0.7c0.4,0,0.7-0.3,0.7-0.7C35.2,9.8,34.9,9.5,34.5,9.5C34.5,9.5,34.5,9.5,34.5,9.5z M44.2,9.5h0.2v2.6h-0.2
	c-0.1,0-0.2-0.1-0.2-0.2V9.8C44,9.6,44.1,9.5,44.2,9.5z M45.5,9.5H46c-0.1,0.2-0.1,0.4-0.1,0.6c0,0.9,0.7,1.6,1.6,1.6c0,0,0,0,0,0
	h1.4c0.7,0,1.3-0.5,1.5-1.2v-0.1c0.1-0.2,0.4-0.3,0.5,0l0,0c0.2,0.7,0.8,1.2,1.5,1.2h1.4c0.9,0,1.6-0.7,1.6-1.6c0,0,0,0,0,0
	c0-0.2,0-0.4-0.1-0.6h0.5v3.9c0,2.9-2.3,5.2-5.2,5.2s-5.2-2.3-5.2-5.2L45.5,9.5L45.5,9.5z M47.5,9.5h1.4c0.3,0,0.6,0.3,0.6,0.6
	s-0.3,0.6-0.6,0.6h-1.4c-0.3,0-0.6-0.3-0.6-0.6C46.9,9.8,47.1,9.5,47.5,9.5C47.5,9.5,47.5,9.5,47.5,9.5z M56.9,9.5h0.2
	c0.1,0,0.2,0.1,0.2,0.2v2.1c0,0.1-0.1,0.2-0.2,0.2h-0.2V9.5z M52.5,9.6h1.4c0.3,0,0.6,0.3,0.6,0.6s-0.3,0.6-0.6,0.6h-1.4
	c-0.3,0-0.6-0.3-0.6-0.6S52.2,9.6,52.5,9.6L52.5,9.6z M7,9.6h0.2v0.2l0,0v2.3H7c-0.1,0-0.2-0.1-0.2-0.2V9.8C6.7,9.7,6.8,9.6,7,9.6z
	 M19.6,9.6h0.2c0.1,0,0.2,0.1,0.2,0.2v2.1c0,0.1-0.1,0.2-0.2,0.2h-0.2V9.7l0,0V9.6z M48.2,9.8c-0.2,0-0.4,0.2-0.4,0.4l0,0
	c0,0.2,0.2,0.4,0.4,0.4l0,0c0.2,0,0.4-0.2,0.4-0.4C48.5,9.9,48.4,9.8,48.2,9.8z M53.2,9.8c-0.2,0-0.4,0.2-0.4,0.4l0,0
	c0,0.2,0.2,0.4,0.4,0.4c0.2,0,0.4-0.2,0.4-0.4l0,0C53.5,9.9,53.4,9.8,53.2,9.8z M10.9,10.1c-0.4,0-0.7,0.3-0.7,0.7c0,0,0,0,0,0l0,0
	c0,0.4,0.3,0.7,0.7,0.7c0.4,0,0.7-0.3,0.7-0.7C11.6,10.4,11.3,10.1,10.9,10.1z M15.9,10.1c-0.4,0-0.7,0.3-0.7,0.7
	c0,0.4,0.3,0.7,0.7,0.7c0.4,0,0.7-0.3,0.7-0.7C16.6,10.4,16.3,10.1,15.9,10.1z M31.5,12c-0.1,0-0.3,0-0.4,0.1
	c-0.2,0.2-0.2,0.5,0,0.7c0,0,0,0,0,0c0.2,0.2,0.6,0.4,0.9,0.4c0.3,0,0.7-0.1,0.9-0.4c0.2-0.2,0.2-0.5,0-0.7s-0.5-0.2-0.7,0
	c-0.1,0.1-0.1,0.1-0.2,0.1s-0.1,0-0.2-0.1S31.7,12,31.5,12z M50,12.8c-0.3,0-0.5,0.2-0.5,0.4c0,0,0,0,0,0.1c0,0.7,0.5,1.2,1.2,1.2
	s1.2-0.5,1.2-1.2c0-0.3-0.2-0.5-0.5-0.5s-0.5,0.2-0.5,0.5c0,0.2-0.4,0.2-0.4,0C50.5,13,50.3,12.8,50,12.8z M12.7,12.8
	c-0.3,0-0.5,0.2-0.5,0.4c0,0,0,0,0,0.1c0,0.7,0.5,1.2,1.2,1.2c0.7,0,1.2-0.5,1.2-1.2c0,0,0,0,0,0c0-0.3-0.2-0.5-0.5-0.5
	s-0.5,0.2-0.5,0.5c0,0.2-0.4,0.2-0.4,0C13.2,13,13,12.8,12.7,12.8z M30.3,13.6c-0.3,0-0.5,0.2-0.5,0.4c0,0,0,0,0,0.1
	c0,1.3,1,2.3,2.3,2.3c1.3,0,2.3-1,2.3-2.3c0-0.3-0.2-0.5-0.4-0.5c0,0,0,0-0.1,0H30.3z M30.9,14.6h2.4c-0.2,0.5-0.7,0.8-1.2,0.8
	C31.6,15.4,31.1,15.1,30.9,14.6z M48.5,14.8c-0.1,0-0.2,0.1-0.3,0.2c-0.2,0.2-0.1,0.5,0.1,0.7c0,0,0,0,0,0c0.7,0.5,1.6,0.8,2.5,0.8
	c0.9,0,1.8-0.3,2.5-0.8c0.2-0.2,0.3-0.5,0.1-0.7c-0.2-0.2-0.5-0.3-0.7-0.1c-1.1,0.8-2.6,0.8-3.7,0C48.8,14.8,48.7,14.8,48.5,14.8z
	 M15.6,14.8c-0.1,0-0.3,0-0.4,0.1c-1.1,0.8-2.6,0.8-3.7,0c-0.2-0.2-0.5-0.1-0.7,0.1c-0.2,0.2-0.1,0.5,0.1,0.7
	c0.7,0.5,1.6,0.8,2.5,0.8c0.9,0,1.8-0.3,2.5-0.8c0.2-0.2,0.2-0.5,0.1-0.7C15.8,14.9,15.7,14.9,15.6,14.8z M30.3,18.8
	c0.5,0.2,1.1,0.3,1.7,0.3c0.5,0,1.1-0.1,1.6-0.3V21l-1.7,1.9L30.3,21L30.3,18.8z M49,19.3c0.5,0.2,1.1,0.2,1.7,0.2
	c0.5,0,1.1-0.1,1.6-0.2v1.8l-1.6,1.6L49,21.1V19.3z M11.8,19.5c0.3,0.1,0.6,0.1,0.9,0.1h1.4c0.3,0,0.6,0,0.9-0.1v1.7l-1.6,1.6
	l-1.7-1.7v-1.6H11.8z M16,21.7l1,1l-1.8,1.8l-1-1L16,21.7z M53.2,21.7l1,1l-1.8,1.8l-0.3-0.2l0,0l-0.7-0.7L53.2,21.7z M10.9,21.7
	l1.8,1.8L12,24.2l0,0l-0.3,0.3l-1.8-1.8L10.9,21.7z M48.2,21.7l1.8,1.8l-0.7,0.7l0,0L49,24.5l-1.8-1.8L48.2,21.7z M34.3,21.8l1,1
	l-1.7,1.9l-0.2-0.2l0,0l-0.7-0.7L34.3,21.8z M29.7,21.9l1.5,1.9l-1,1l-1.5-1.9L29.7,21.9z M17.9,23.2h1.2c0.6,0,1.3,0.1,1.9,0.3
	l-0.1,0.1c-0.1,0.1-0.2,0.1-0.3,0.2s-0.2,0.1-0.2,0.2l-0.2,0.2c-0.2,0.1-0.3,0.3-0.4,0.5c-0.1,0.1-0.1,0.2-0.2,0.3s-0.1,0.2-0.2,0.3
	s-0.1,0.2-0.2,0.3s-0.1,0.2-0.1,0.3s-0.1,0.2-0.2,0.3s-0.1,0.2-0.1,0.3s-0.1,0.3-0.1,0.4s0,0.2-0.1,0.2c0,0.2-0.1,0.3-0.1,0.5v11.9
	H1V30c0-3.7,3-6.7,6.7-6.7c0,0,0,0,0,0H9l2.4,2.4c0.1,0.1,0.2,0.1,0.4,0.1s0.3-0.1,0.4-0.1l0,0l-1.3,9.9c0,0.1,0,0.3,0.1,0.4
	l2.1,2.9c0.2,0.2,0.5,0.3,0.7,0.1c0,0,0.1-0.1,0.1-0.1L16,36c0.1-0.1,0.1-0.2,0.1-0.4l-1.3-10l0.1,0.1c0.1,0.1,0.2,0.1,0.4,0.1
	s0.3-0.1,0.4-0.1L17.9,23.2z M24.8,23.2h2.9l2.1,2.6c0.1,0.1,0.2,0.2,0.4,0.2l0,0c0.1,0,0.3-0.1,0.4-0.1l0,0l-1.3,9.9
	c0,0.1,0,0.3,0.1,0.4l2.1,2.9c0.2,0.2,0.5,0.3,0.7,0.1c0,0,0.1-0.1,0.1-0.1l2.1-2.9c0.1-0.1,0.1-0.2,0.1-0.4l-1.3-9.9
	c0.1,0.1,0.2,0.1,0.3,0.1l0,0c0.2,0,0.3-0.1,0.4-0.2l2.3-2.6h2.9c1,0,2,0.3,2.8,0.8c0.1,0,0.1,0.1,0.2,0.1c0.3,0.2,0.5,0.4,0.7,0.6
	l0.1,0.1c0.2,0.2,0.4,0.4,0.5,0.6c0,0.1,0.1,0.1,0.1,0.2c0.2,0.2,0.3,0.5,0.4,0.8l0,0c0.1,0.3,0.2,0.5,0.3,0.8v0.2
	c0.1,0.3,0.1,0.6,0.1,0.9v11h-1.1V29.1c0-0.3-0.2-0.5-0.5-0.5s-0.5,0.2-0.5,0.5v10.2h-2.6v-8.8c0-0.3-0.2-0.5-0.5-0.5
	s-0.5,0.2-0.5,0.5v8.8h-14v-8.8c0-0.3-0.2-0.5-0.5-0.5s-0.5,0.2-0.5,0.5v8.8h-4v-11c0-0.3,0-0.6,0.1-0.9v-0.2
	c0.1-0.3,0.1-0.6,0.3-0.8v-0.1c0.1-0.3,0.3-0.5,0.4-0.8c0-0.1,0.1-0.1,0.1-0.2c0.2-0.2,0.3-0.4,0.5-0.6c0-0.1,0-0.1,0.1-0.1
	c0.2-0.2,0.5-0.4,0.7-0.6c0.1,0,0.1-0.1,0.2-0.1C22.9,23.5,23.8,23.2,24.8,23.2z M44.9,23.2h1.3l2.4,2.4c0.1,0.1,0.2,0.1,0.4,0.1
	s0.3-0.1,0.4-0.1l0,0l-0.5,4.1v0.1L48,35.5c0,0.1,0,0.3,0.1,0.4l2.1,2.9c0.2,0.2,0.5,0.3,0.7,0.1c0,0,0.1-0.1,0.1-0.1l2.1-2.9
	c0.1-0.1,0.1-0.2,0.1-0.4L52,25.6c0.1,0.1,0.2,0.1,0.3,0.1c0.1,0,0.3-0.1,0.4-0.1l2.4-2.4h1.3c3.7,0,6.7,3,6.7,6.7l0,0v9.5h-4.7
	V29.1c0-0.3-0.2-0.5-0.5-0.5s-0.5,0.2-0.5,0.5v10.2h-12V27.4c0-0.2,0-0.3-0.1-0.5c0-0.1,0-0.2-0.1-0.2s-0.1-0.3-0.1-0.4
	S45,26.1,45,26s-0.1-0.2-0.1-0.3s-0.1-0.2-0.1-0.3s-0.1-0.2-0.2-0.3s-0.1-0.2-0.2-0.3s-0.1-0.2-0.2-0.3s-0.3-0.3-0.4-0.5l-0.2-0.2
	l-0.2-0.2c-0.1-0.1-0.2-0.1-0.2-0.2l-0.1-0.1C43.6,23.3,44.2,23.2,44.9,23.2z M13.4,24.2l0.4,0.4L13.4,25L13,24.6L13.4,24.2z
	 M50.6,24.2l0.4,0.4L50.6,25l-0.4-0.4L50.6,24.2z M31.9,24.5l0.4,0.4l-0.4,0.4l-0.4-0.4l0.1-0.1L31.9,24.5z M13,26L13,26
	c0.1,0.1,0.2,0.2,0.4,0.2c0.1,0,0.3-0.1,0.4-0.1l0,0l0.2,1.2l-1.2,1.2L13,26z M50.3,26L50.3,26c0.1,0.1,0.2,0.2,0.4,0.2
	c0.1,0,0.3-0.1,0.4-0.1l0,0l0.2,1.2l-1.2,1.2L50.3,26z M31.5,26.2L31.5,26.2c0.1,0.1,0.2,0.2,0.4,0.2c0.1,0,0.3,0,0.4-0.1l0,0
	l0.1,0.7l-1.1,1.1L31.5,26.2z M32.5,28.1l0.2,1.7l-2,2l0.3-2.2L32.5,28.1z M14.1,28.4l0.2,1.2l-2,2l0.2-1.6L14.1,28.4z M51.4,28.4
	l0.2,1.4l-2,2l0.2-1.8L51.4,28.4z M14.4,30.9l0.2,1.6l0,0l-2.8,2.8l0.3-2.1L14.4,30.9z M51.7,31l0.2,1.5l0,0L49,35.3l0.2-1.9
	L51.7,31z M32.9,31l0.2,1.7l0,0l-2.8,2.8l0.3-2.2L32.9,31z M14.8,33.7l0.2,1.7l-1.6,2.2l-1.1-1.4L14.8,33.7z M52,33.7l0.2,1.7
	l-1.6,2.2l-1.1-1.4L52,33.7z M33.3,34l0.2,1.7l-1.6,2.2l-1.1-1.4L33.3,34z"/>
</svg>
