<?xml version="1.0" encoding="utf-8"?>
<!-- Generator: Adobe Illustrator 22.0.1, SVG Export Plug-In . SVG Version: 6.00 Build 0)  -->
<svg version="1.1" id="Capa_1" xmlns="http://www.w3.org/2000/svg" xmlns:xlink="http://www.w3.org/1999/xlink" x="0px" y="0px"
	 viewBox="0 0 31 31" style="enable-background:new 0 0 31 31;" xml:space="preserve">
<style type="text/css">
	.st0{fill:#FFFFFF;}
	.st1{fill:none;stroke:#FFFFFF;stroke-miterlimit:10;}
</style>
<g>
	<g>
		<path class="st0" d="M37.4,29.2c-0.3,0-0.6-0.1-0.8-0.3L23.5,16.6C23,16.2,23,15.4,23.5,15c0.4-0.5,1.1-0.5,1.6-0.1l13.1,12.3
			c0.5,0.4,0.5,1.2,0.1,1.6C38,29.1,37.7,29.2,37.4,29.2z"/>
		<path class="st0" d="M-6.4,29.2c-0.3,0-0.6-0.1-0.8-0.4c-0.4-0.5-0.4-1.2,0.1-1.6L5.9,14.9c0.5-0.4,1.2-0.4,1.6,0.1
			C8,15.4,8,16.2,7.5,16.6L-5.6,28.9C-5.8,29.1-6.1,29.2-6.4,29.2z"/>
	</g>
	<path class="st0" d="M45.2,40.7h-59.3c-3.1,0-5.7-2.6-5.7-5.7V-3.9c0-3.1,2.6-5.7,5.7-5.7h59.3c3.1,0,5.7,2.6,5.7,5.7V35
		C50.9,38.1,48.3,40.7,45.2,40.7z M-14.2-7.4c-1.9,0-3.4,1.5-3.4,3.4V35c0,1.9,1.5,3.4,3.4,3.4h59.3c1.9,0,3.4-1.5,3.4-3.4V-3.9
		c0-1.9-1.5-3.4-3.4-3.4H-14.2z"/>
	<path class="st0" d="M15.5,21.2c-1.5,0-3-0.5-4.2-1.5L-18-5.8c-0.5-0.4-0.5-1.1-0.1-1.6c0.4-0.5,1.1-0.5,1.6-0.1L12.8,18
		c1.5,1.3,3.9,1.3,5.4,0L47.5-7.5c0.5-0.4,1.2-0.4,1.6,0.1c0.4,0.5,0.4,1.2-0.1,1.6L19.7,19.7C18.5,20.7,17,21.2,15.5,21.2z"/>
</g>
<circle class="st1" cx="15.5" cy="15.5" r="61"/>
</svg>
