<?xml version="1.0" encoding="utf-8"?>
<!-- Generator: Adobe Illustrator 22.0.1, SVG Export Plug-In . SVG Version: 6.00 Build 0)  -->
<svg version="1.1" id="Calque_1" xmlns="http://www.w3.org/2000/svg" xmlns:xlink="http://www.w3.org/1999/xlink" x="0px" y="0px"
	 viewBox="0 0 100 104" style="enable-background:new 0 0 100 104;" xml:space="preserve">
<path d="M70.5,8.2C68.8,6.6,67,6.2,66.2,6c-1-0.1-2-0.2-3-0.3C59,5.3,55,5.1,51.2,5.1c0,0,0,0,0,0c-0.4,0-0.8,0-1.1,0
	c-0.4,0-0.8,0-1.1,0c0,0,0,0,0,0c-3.8,0-7.8,0.2-11.9,0.6c-1,0.1-2,0.2-3,0.3c-0.8,0.1-2.7,0.6-4.3,2.2c-2.4,2.3-2.5,5.2-2.6,5.9
	c0,23.3,0,46.6,0,69.9c0,1.1,0.2,4,2.3,6.6c3.5,4.4,14.3,4.2,16.7,4.3c1.4,0,2.7,0.1,4,0c1.3,0,2.7,0,4,0c2.4-0.1,13.2,0.1,16.7-4.3
	c2.1-2.6,2.3-5.5,2.3-6.6c0-23.3,0-46.6,0-69.9C73,13.4,72.9,10.5,70.5,8.2z M63.6,9.2c0.6,0,1.1,0.5,1.1,1.1c0,0.6-0.5,1.1-1.1,1.1
	c-0.6,0-1.1-0.5-1.1-1.1C62.5,9.7,63,9.2,63.6,9.2z M59.3,9.6c0.4,0,0.7,0.3,0.7,0.7s-0.3,0.7-0.7,0.7c-0.4,0-0.7-0.3-0.7-0.7
	S58.9,9.6,59.3,9.6z M57.2,9.6c0.4,0,0.7,0.3,0.7,0.7s-0.3,0.7-0.7,0.7c-0.4,0-0.7-0.3-0.7-0.7S56.8,9.6,57.2,9.6z M45.8,8.4h8.5
	c0.2,0,0.4,0.2,0.4,0.4s-0.2,0.4-0.4,0.4h-8.5c-0.2,0-0.4-0.2-0.4-0.4C45.4,8.6,45.5,8.4,45.8,8.4z M55.1,90.2
	c0,0.2-0.1,0.3-0.2,0.6c-0.1,0.1-0.2,0.3-0.5,0.5c-0.3,0.2-0.6,0.2-0.7,0.2c-1.1,0-2.2,0-3.4,0c-0.2,0-0.5,0-0.7,0
	c-1.1,0-2.2,0-3.4,0c-0.1,0-0.4,0-0.7-0.2c-0.3-0.2-0.4-0.4-0.5-0.5c-0.1-0.2-0.2-0.4-0.2-0.6c-0.1-0.2-0.1-0.4-0.1-0.7
	c0-0.1,0-0.4,0.3-0.6c0.2-0.1,0.3-0.2,0.4-0.2h4.2h0.7h4.2c0.1,0,0.2,0,0.4,0.2c0.2,0.2,0.3,0.5,0.3,0.6
	C55.2,89.7,55.2,90,55.1,90.2z M70.3,83.8H29.7V13.5h40.6L70.3,83.8L70.3,83.8z"/>
</svg>
