<?xml version="1.0" encoding="utf-8"?>
<!-- Generator: Adobe Illustrator 22.0.1, SVG Export Plug-In . SVG Version: 6.00 Build 0)  -->
<svg version="1.1" id="Calque_1" xmlns="http://www.w3.org/2000/svg" xmlns:xlink="http://www.w3.org/1999/xlink" x="0px" y="0px"
	 viewBox="0 0 100 84.2" style="enable-background:new 0 0 100 84.2;" xml:space="preserve">
<style type="text/css">
	.st0{fill:#D0BD6D;}
</style>
<g>
	<path class="st0" d="M18.6,34.9c0,0.8-0.6,1.4-1.4,1.4s-1.4-0.6-1.4-1.4s0.6-1.4,1.4-1.4C18,33.4,18.6,34.1,18.6,34.9z M30.4,33.4
		c-0.8,0-1.4,0.6-1.4,1.4s0.6,1.4,1.4,1.4s1.4-0.6,1.4-1.4S31.2,33.4,30.4,33.4z M23.4,42l1.2,0.1h0.1c0.5,0,1-0.4,1-0.9
		c0-0.6-0.4-1-0.9-1.1h-0.6l0.5-1.6c0.2-0.5-0.1-1.1-0.6-1.3s-1.1,0.1-1.3,0.6L22,39.9c-0.2,0.5-0.1,1,0.2,1.4
		C22.5,41.7,22.9,42,23.4,42z M20.2,44c-0.5,0.3-0.6,0.9-0.4,1.4c0.7,1.2,2.2,1.9,3.9,1.9c1.7,0,3.3-0.8,3.9-1.9
		c0.3-0.5,0.1-1.1-0.4-1.4c-0.5-0.3-1.1-0.1-1.4,0.4c-0.3,0.4-1.1,0.9-2.2,0.9s-1.9-0.5-2.2-0.9C21.3,43.9,20.7,43.7,20.2,44z
		 M27.9,34.2c0.3,0,0.5-0.1,0.7-0.3c1.9-1.8,3.8-0.2,4-0.1c0.4,0.4,1,0.3,1.4-0.1c0.4-0.4,0.3-1-0.1-1.4c-1.2-1.1-4.1-2.4-6.7,0.1
		c-0.4,0.4-0.4,1,0,1.4C27.4,34.1,27.7,34.2,27.9,34.2z M19,33.9c0.2,0.2,0.4,0.3,0.7,0.3c0.3,0,0.5-0.1,0.7-0.3
		c0.4-0.4,0.4-1,0-1.4c-2.6-2.5-5.5-1.2-6.7-0.1c-0.4,0.4-0.4,1-0.1,1.4c0.4,0.4,1,0.4,1.4,0.1C15.1,33.8,17.1,32.1,19,33.9z
		 M47.2,69.5l0.1,4.5c0,0.6-0.4,1-1,1l0,0c-0.5,0-1-0.4-1-1l0,0l-0.1-4.5c-0.1-2-0.6-3.9-1.4-5.6c-0.4-0.7-0.8-1.4-1.3-2.1
		c-1.3-1.7-3.1-3-5.1-3.8c-0.6-0.2-1.3-0.4-2-0.5c-0.1,0.1-0.2,0.1-0.3,0.2c-2.2,1.6-7,2.4-11.3,2.4s-9.1-0.7-11.3-2.4
		c-0.1-0.1-0.2-0.1-0.3-0.2c-0.7,0.1-1.3,0.3-2,0.5c-2,0.8-3.8,2.1-5.1,3.8c-0.5,0.6-0.9,1.3-1.3,2.1c-0.9,1.7-1.4,3.6-1.4,5.6
		L2.3,74l0,0c0,0.6-0.5,1-1,1c-0.6,0-1-0.5-1-1l0.1-4.5c0.1-3,1-5.7,2.6-8c-0.2-0.8-0.2-1.8-0.2-2.8c0.1-1.3,0.6-2.4,1-3.4
		c1-2.4,2-4.7-0.9-9.3c-4.3-6.9-0.6-14.4,0.3-16c0.2-7.9,2.4-13.6,6.6-17c5.1-4.2,11.5-3.3,13-3.1c1.6-0.5,9.1-2.3,14.8,1.9
		c4.5,3.3,6.7,9.4,6.7,18.2c0.9,1.6,4.6,9.1,0.3,16c-2.9,4.6-1.9,6.9-0.9,9.3c0.5,1.1,0.9,2.2,1,3.4c0.1,1.1,0,2-0.2,2.8
		C46.2,63.7,47.1,66.5,47.2,69.5z M4.8,59.3c1.9-1.9,4.4-3.2,7.1-3.6c0.2,0,0.3-0.1,0.5-0.1s0.4,0,0.6,0.1l4.4-0.9v-3.5
		c-0.4-0.2-0.7-0.5-1.1-0.7c-3-2.2-5.3-5.5-6.6-8.8c-1.7-0.3-3.3-2.2-3.9-3.6C5.5,37,5.5,35.9,6,34.9c0.4-0.8,1.1-1.4,2-1.6
		c0.2-0.1,0.4-0.1,0.7-0.1c0.1-0.5,0.1-1,0.3-1.5c-0.4-0.2-0.6-0.6-0.6-1c0-1.7,0.2-3.3,0.5-4.8c0-0.1,0-0.2,0-0.3
		c0-6.4,6.8-11.5,15.1-11.5c7.8,0,14.2,4.6,15,10.4c0.8,2.8,0.5,8,0.5,8.3c0,0.2-0.1,0.5-0.3,0.6c0.3,0,0.7,0,1,0
		c0.7,0.2,1.2,0.6,1.6,1.3c0.6,1.1,0.6,2.9,0.1,4.3c-0.6,1.7-2.2,2.9-3.8,2.9l0,0c-1.4,3.4-3.7,6.5-6.7,8.6c-0.3,0.2-0.6,0.4-1,0.6
		v3.7l4.4,0.9c0.2-0.1,0.4-0.1,0.6-0.1c0.2,0,0.4,0.1,0.6,0.1c2.7,0.5,5.2,1.8,7.1,3.6c0-0.2,0-0.3,0-0.5C43,57.9,42.6,57,42.2,56
		c-1.1-2.5-2.4-5.7,1-11.2c3.8-6.2,0.1-13.3-0.4-14.1c-0.1-0.3-0.2-0.5-0.2-0.8c0-8.1-2-13.7-5.9-16.6c-5.2-3.9-12.3-1.9-13.1-1.6
		c-0.3,0.1-0.5,0.1-0.8,0c-1.1-0.2-6.9-1.1-11.4,2.6c-3.7,3-5.7,8.3-5.9,15.6c0,0.3-0.1,0.5-0.2,0.8c-0.4,0.8-4.2,7.9-0.4,14.1
		c3.4,5.5,2.1,8.6,1,11.2c-0.4,1-0.8,1.9-0.9,2.8C4.8,59,4.8,59.1,4.8,59.3z M31.9,57.1L29,56.5c-0.5-0.1-0.8-0.5-0.8-1v-3.4
		c-1.5,0.6-3,1-4.6,1c-1.5,0-2.9-0.3-4.2-0.8v3.3c0,0.5-0.3,0.9-0.8,1l-2.9,0.6c1.8,0.6,4.5,1,8.1,1C27.4,58.2,30.1,57.7,31.9,57.1z
		 M17.7,49c0.2,0.2,0.5,0.3,0.7,0.5c0.3,0.2,0.7,0.4,1,0.5c1.3,0.7,2.7,1,4.2,1c1.6,0,3.1-0.4,4.6-1.2c0.3-0.2,0.7-0.4,1-0.6
		c0.2-0.1,0.4-0.3,0.7-0.4c0.1-0.1,0.2-0.2,0.3-0.3c2.5-1.9,4.5-4.6,5.7-7.5c0.3-0.8,0.6-1.5,0.8-2.3c0.1-0.6,0.3-1.2,0.3-1.7
		c0.1-0.5,0.1-1,0.1-1.4c0-0.5,0-1-0.1-1.5c0-0.3-0.1-0.6-0.1-0.9c-4.2-1.1-6.7-3.8-7.9-5.5c-2.8,2.7-7.2,2.3-7.4,2.3
		c-0.4,0-0.8-0.4-0.9-0.8c0-0.1,0-0.1,0-0.2c-2.3,1.3-4.3,1.4-4.4,1.4c-0.4,0-0.7-0.2-0.9-0.5s-0.2-0.6-0.1-0.9
		c-1.6,1.1-3.1,1.9-4.4,2.4c-0.2,0.7-0.3,1.5-0.4,2.2c-0.1,0.6-0.1,1.3-0.1,2c0,0.2,0,0.4,0,0.7c0,0.8,0.2,1.7,0.4,2.5
		s0.5,1.6,0.8,2.4c1.2,2.9,3.2,5.6,5.7,7.5C17.5,48.9,17.6,48.9,17.7,49z M37.3,28.1c0-0.4,0-0.7-0.1-1.1c-0.4-1-1-1.8-1.7-2.6
		c-2.5-2.9-6.9-4.7-11.7-4.7c-4.2,0-8,1.4-10.6,3.6c-1,0.9-1.9,1.9-2.5,3.1c-0.1,0.3-0.1,0.6-0.2,1c-0.1,0.8-0.2,1.6-0.3,2.4
		c0.1,0,0.2-0.1,0.3-0.1c0.4-0.2,0.9-0.4,1.4-0.7c1.7-0.9,4-2.4,5.8-4.4c0.3-0.4,0.9-0.4,1.3-0.1s0.5,0.8,0.3,1.3L18.2,28
		c1.5-0.5,3.5-1.6,5.4-3.9l0,0c0.1-0.2,0.3-0.3,0.5-0.3s0.4,0,0.6,0h0.1c0,0,0.1,0,0.1,0.1c0.4,0.2,0.5,0.6,0.5,1.1
		c-0.1,0.3-0.4,1.7-1.2,3.1c1.4-0.2,3.2-0.8,4.2-2.4c0.2-0.3,0.5-0.5,0.9-0.5s0.7,0.2,0.8,0.5c0,0,2,3.8,6.3,5.4
		c0.3,0.1,0.6,0.2,1,0.3c0-0.2,0-0.4,0-0.6C37.4,29.9,37.3,29,37.3,28.1z M39.1,35.7c0,1.3-0.2,2.6-0.6,3.9c0.5-0.3,1-0.8,1.2-1.4
		c0.3-0.9,0.3-2,0-2.7c-0.1-0.1-0.2-0.3-0.3-0.3h-0.1c-0.1,0-0.1,0-0.2,0C39.1,35.4,39.1,35.6,39.1,35.7z M8.5,35.7
		c0-0.1,0-0.3,0-0.4l0,0c-0.4,0.1-0.6,0.4-0.7,0.6c-0.2,0.4-0.2,1,0,1.6C8,38,8.4,38.6,8.9,39C8.6,37.9,8.5,36.7,8.5,35.7z
		 M68.2,36.3c0.9,0,1.6-0.7,1.6-1.6c0-0.9-0.7-1.6-1.6-1.6s-1.6,0.7-1.6,1.6C66.6,35.5,67.3,36.3,68.2,36.3z M83.4,33
		c-0.9,0-1.6,0.7-1.6,1.6c0,0.9,0.7,1.6,1.6,1.6s1.6-0.7,1.6-1.6S84.3,33,83.4,33z M75.4,42.8C75.5,42.8,75.5,42.8,75.4,42.8
		l1.4-0.1c0.6,0,1-0.5,1-1s-0.5-1-1-1h-1l0.2-3.2c0-0.6-0.4-1-0.9-1.1c-0.6,0-1,0.4-1.1,0.9L73.8,41c0,0.5,0.1,1,0.5,1.3
		C74.6,42.6,75,42.8,75.4,42.8z M71.2,44.8c-0.4,0.4-0.4,1,0,1.4c0.8,0.9,2.6,1.4,4.6,1.4s3.8-0.5,4.6-1.4c0.4-0.4,0.4-1,0-1.4
		s-1-0.4-1.4,0c-0.3,0.3-1.4,0.8-3.2,0.8s-2.9-0.5-3.2-0.8C72.2,44.5,71.6,44.5,71.2,44.8z M70.8,33.4c0.1,0,0.2,0.1,0.4,0.1
		c0.4,0,0.8-0.2,0.9-0.6c0.2-0.5-0.1-1.1-0.6-1.3c-3-1.2-6.3-0.1-6.4-0.1c-0.5,0.2-0.8,0.7-0.6,1.3c0.2,0.5,0.7,0.8,1.3,0.6
		C65.8,33.3,68.4,32.4,70.8,33.4z M80.4,33.4c0.1,0,0.2,0,0.4-0.1c2.4-0.9,5-0.1,5.1,0c0.5,0.2,1.1-0.1,1.3-0.6
		c0.2-0.5-0.1-1.1-0.6-1.3c-0.1,0-3.4-1.1-6.4,0.1c-0.5,0.2-0.8,0.8-0.6,1.3C79.6,33.2,80,33.4,80.4,33.4z M99.7,74c0,0.6-0.4,1-1,1
		c-0.5,0-1-0.4-1-1l0,0l-0.1-4.5c-0.1-4.5-2.4-8.4-5.8-10.5c-0.3-0.2-0.7-0.4-1.1-0.6c-1-0.4-2-0.8-3.1-0.9h-0.1l-0.1,0.1
		c-0.3,0.3-0.6,0.5-0.9,0.8c-2.6,1.9-6.5,3-10.7,3s-8.1-1.1-10.7-3c-0.3-0.2-0.6-0.5-0.9-0.8l-0.1-0.1H64c-1.1,0.2-2.1,0.5-3.1,0.9
		c-0.4,0.2-0.7,0.4-1.1,0.6c-3.4,2.1-5.7,6-5.8,10.5L53.9,74l0,0c0,0.5-0.5,1-1,1l0,0c-0.6,0-1-0.5-1-1l0.1-4.6
		c0.2-7.1,5.2-13,11.8-13.9h0.1l0,0h0.6c0.3,0,0.5,0.1,0.7,0.3c0.1,0.1,0.3,0.2,0.4,0.3l3-0.8l0.1-3.9c-0.1-0.1-0.2-0.1-0.3-0.2
		c-1.1-0.8-2.2-1.7-3.1-2.8c-1.4-1.8-2.5-3.8-3.2-5.9H62c-0.5,0-1-0.1-1.5-0.4c-1.3-0.6-2.5-2-2.9-3.5c-0.7-2.2,0.4-4.7,2.5-5.4
		c0.1,0,0.2,0,0.2-0.1c0-0.4-0.1-0.9-0.1-1.3c-0.2,0-0.5,0-0.7,0c-0.6-0.2-1.1-0.6-1.2-1.2c-1.6-6.6,0.7-10,2.4-11.5
		c-0.6-0.5-0.9-1-1.1-1.5C59,15.8,60,13.7,60.5,13l0.4-0.5l0.7,0.1c0.4,0.1,0.7,0.5,0.8,0.9c0,0.4,0.2,0.6,0.3,0.7
		c0.4,0.1,1.4-0.3,2-0.8C72.8,7,79.6,11.2,81,12.3c6.5,0.4,10.9,4,12.3,10c1,4.3,0.3,9.4-1,11.4c1.6,1,2.3,3.1,1.7,5l0,0
		c-0.5,1.4-1.6,2.8-2.9,3.5c-0.5,0.2-1,0.4-1.5,0.4h-0.1c-0.8,2.1-1.8,4.2-3.2,5.9c-0.9,1.1-1.9,2.1-3.1,2.8
		c-0.1,0.1-0.2,0.1-0.3,0.2l0.1,3.9l3,0.8c0.1-0.1,0.3-0.2,0.4-0.3c0.2-0.2,0.5-0.3,0.7-0.3h0.6l0,0h0.1c6.6,0.9,11.6,6.7,11.8,13.9
		L99.7,74z M75.8,59.5c3,0,5.9-0.7,8-1.7l-2-0.6c-0.4-0.1-0.7-0.5-0.7-0.9L81,52.6c-1.3,0.5-2.7,0.9-4.3,1H75c-1.6-0.1-3-0.5-4.4-1
		l-0.1,3.7c0,0.4-0.3,0.8-0.7,0.9l-2,0.6C69.9,58.8,72.8,59.5,75.8,59.5z M63.9,41.7c0.7,2,1.6,3.9,2.9,5.5c0.7,0.8,1.4,1.5,2.2,2.1
		c0.5,0.4,1.1,0.8,1.7,1.1c1.3,0.7,2.8,1.1,4.4,1.2h1.5c1.6-0.1,3-0.5,4.3-1.2c0.6-0.3,1.2-0.7,1.7-1.1c0.8-0.6,1.5-1.3,2.2-2.1
		c1.3-1.6,2.2-3.5,2.9-5.5c0.3-0.8,0.5-1.7,0.7-2.5c0.3-1.3,0.5-2.6,0.7-3.8c0.1-0.7,0.2-1.4,0.2-2c-0.1-0.1-0.1-0.1-0.2-0.2
		c-2.1-2.1-4.1-3.8-6-5.1c-7.3-5-12.7-4.4-13.6-4.3c-2,1.5-3.6,3-5,4.3c-0.9,0.8-1.6,1.6-2.3,2.2c0,0.8,0,1.7,0.1,2.8
		c0,0.7,0.1,1.5,0.2,2.3c0.2,1.2,0.4,2.5,0.7,3.8C63.4,40,63.6,40.9,63.9,41.7z M60.2,29.5c0.3-0.3,0.6-0.7,1-1.1
		c0.1-0.1,0.2-0.2,0.3-0.3l0,0c1.6-1.6,3.9-3.7,6.7-5.9c0.2-0.2,0.5-0.3,0.7-0.3c0.4-0.1,1-0.2,2-0.2c3,0,8.6,0.9,15.5,6.4
		c1,0.8,2,1.6,3,2.6c0.3,0.3,0.7,0.6,1,1c0.2,0.2,0.4,0.3,0.5,0.5c0.2-0.4,0.3-0.9,0.5-1.6c0.5-2.3,0.8-6-0.5-9.5
		c-1.6-4.3-5.1-6.6-10.3-6.9h-0.3L80,14c-0.3-0.2-6.3-5.2-14.1,1c-0.4,0.3-2.4,1.7-4,1.1c-0.1-0.1-0.3-0.1-0.5-0.3
		c-0.1,0.4-0.1,0.8,0,1.2c0.1,0.2,0.2,0.7,1.3,1l0.7,0.2l0.1,0.7c0,0.4-0.2,0.9-0.6,1.1C62.2,20.3,58.6,22.6,60.2,29.5
		C60.1,29.6,60.1,29.6,60.2,29.5z M91.1,35.3c-0.2,1.6-0.5,3.4-1,5.1h0.1c0.8-0.4,1.6-1.4,1.9-2.3C92.5,37,92.1,35.8,91.1,35.3z
		 M61.4,40.4c-0.5-1.8-0.8-3.5-1-5.1c-0.9,0.5-1.4,1.7-1,2.8l0,0C59.7,39,60.5,40,61.4,40.4C61.3,40.4,61.4,40.4,61.4,40.4z"/>
	<rect x="0.3" y="74.2" class="st0" width="99.4" height="1.5"/>
</g>
</svg>
