<?xml version="1.0" encoding="utf-8"?>
<!-- Generator: Adobe Illustrator 22.0.1, SVG Export Plug-In . SVG Version: 6.00 Build 0)  -->
<svg version="1.1" id="Calque_1" xmlns="http://www.w3.org/2000/svg" xmlns:xlink="http://www.w3.org/1999/xlink" x="0px" y="0px"
	 viewBox="0 0 100 109" style="enable-background:new 0 0 100 109;" xml:space="preserve">
<style type="text/css">
	.st0{fill:#D0BD6D;}
</style>
<path class="st0" d="M84,90.2c-0.3-9.8-7.6-17.8-17.3-19.1h-0.1c-0.3,0-0.7,0.1-0.9,0.4c-0.1,0.2-0.3,0.3-0.5,0.5
	c-0.1,0.1-0.2,0.2-0.4,0.3L59.1,71v-7.3c0.1,0.1,0.2,0.1,0.4,0.1s0.5,0.1,0.7,0.1c2.7,0.5,4.9,0.7,7.6,0.7c1.9,0,4.1-0.1,6.9-0.2
	c1,0,1.8-0.6,2.1-1.4c0.4-0.9,0.2-2.1-0.5-2.9c-0.7-0.9-0.2-2.6,0.5-4.4c0.2-0.6,0.4-1.1,0.6-1.7c2-6.6,3-13.4,3-20.1
	C80.5,19.9,77,10.3,70,5.3c-8.7-6.2-19.6-3.1-21.5-2.5C46.8,2.4,37.6,1,29.9,7c-6.6,5.1-10,14.2-10.3,26.9c-0.1,6.3,0.9,12.9,3,20.2
	c0.2,0.6,0.4,1.1,0.6,1.7c0.6,1.8,1.2,3.4,0.5,4.4c-0.7,0.9-0.9,2-0.5,2.9c0.4,0.8,1.2,1.3,2.1,1.4c6.7,0.3,9.9,0.4,14.5-0.4
	c0.2,0,0.5-0.1,0.7-0.1c0.1,0,0.2-0.1,0.2-0.1l0.1,0.1v7.2l-5.7,1.2c-0.1-0.1-0.3-0.2-0.4-0.3c-0.2-0.2-0.4-0.3-0.5-0.5
	c-0.2-0.3-0.7-0.4-1-0.4c-9.7,1.2-17,9.3-17.3,19.1l-0.2,7.3c0,0.3,0.1,0.5,0.3,0.7c0.2,0.2,0.4,0.3,0.7,0.3h66.5
	c0.3,0,0.5-0.1,0.7-0.3c0.2-0.2,0.3-0.5,0.3-0.7L84,90.2z M25.4,62.4c-0.3,0-0.4-0.2-0.4-0.2c-0.1-0.2-0.1-0.5,0.2-0.9
	c1.4-1.8,0.6-4.1-0.1-6.3c-0.2-0.5-0.4-1.1-0.5-1.6c-2.1-7.1-3-13.5-2.9-19.6c0.2-12.1,3.4-20.6,9.5-25.3c7.6-5.9,17.2-3.8,17.3-3.8
	c0.2,0,0.4,0,0.6,0c0.1,0,11.4-3.9,19.9,2.2c6.4,4.6,9.7,13.7,9.6,26.9c0,6.6-1,13.1-2.9,19.6C75.3,54,75.1,54.5,75,55
	c-0.8,2.2-1.6,4.5-0.1,6.3c0.3,0.3,0.3,0.7,0.2,0.9c0,0.1-0.1,0.2-0.4,0.2c-6.6,0.3-9.6,0.4-13.9-0.4c3.4-3.4,6.1-8.1,8-13.1
	c0.1,0,0.2,0.1,0.4,0.1c0.4,0.1,0.7,0.1,1.1,0.1c2.2,0,4.4-1.5,5.3-3.7l0,0c0.7-1.8,0.7-4-0.1-5.5c-0.5-0.9-1.2-1.5-2.1-1.8
	c-0.6-0.1-1.3-0.1-1.9,0.1c0.1-0.9,0.2-1.9,0.2-2.8c0-0.3,0-0.7,0-1s0-0.7,0-1c-0.3,0-0.7,0-1-0.1c-0.3,0-0.7-0.1-1-0.1
	c-13.6-1.2-19-9.8-20.5-12.8c-0.3-0.6-0.4-0.9-0.5-1c-0.2-0.4-0.5-0.7-1-0.6c-0.4,0-0.8,0.3-0.9,0.7c-0.1,0.3-0.2,0.6-0.3,1
	c-2.7,7.2-10.4,10.5-16,12.1c-0.3,0.1-0.7,0.2-1,0.3s-0.7,0.2-1,0.2c0,0.5,0,1,0,1.5c0,0.2,0,0.4,0,0.5c0,1,0.1,2,0.2,3.1
	c-0.5,0-1,0-1.4,0.1c-1.2,0.3-2.2,1-2.7,2.1c-0.6,1.2-0.6,2.6-0.1,4c0.8,2.1,3.6,4.8,6.2,4.8c0.2,0,0.5,0,0.7-0.1
	c1.8,5,4.5,9.6,7.8,13C34.8,62.8,31.9,62.7,25.4,62.4z M69.4,47c0.7-2.1,1.3-4.3,1.6-6.4c0.5-0.3,1-0.5,1.5-0.5c0.1,0,0.2,0,0.3,0
	c0.3,0.1,0.6,0.3,0.8,0.7c0.5,1,0.5,2.6,0,3.8c-0.7,1.7-2.5,2.7-4,2.4C69.5,47.1,69.5,47,69.4,47z M30.6,47.1
	c-1.4,0-3.6-1.8-4.3-3.5c-0.3-0.8-0.3-1.7,0-2.3s0.8-0.9,1.4-1.1c0.2,0,0.4-0.1,0.6-0.1s0.4,0,0.6,0.1
	C29.3,42.5,29.8,44.8,30.6,47.1z M40.9,61.1c-3.3-3.2-6.1-7.9-7.9-13c-0.3-0.9-0.7-1.9-0.9-2.9c-0.3-1.2-0.6-2.4-0.9-3.6
	c-0.2-1-0.4-1.9-0.5-2.9c-0.2-1.4-0.3-2.7-0.3-4.1c5.8-1.4,14.1-4.8,17.5-12.4c2.3,3.9,8.5,11.8,21.6,13.1c0,1.3-0.2,2.6-0.4,4
	c-0.2,1.2-0.4,2.4-0.7,3.6c-0.2,0.7-0.4,1.4-0.6,2.1c-0.3,0.9-0.6,1.8-0.9,2.7c-1.9,5.1-4.7,9.7-7.9,13c-0.2,0.2-0.4,0.4-0.6,0.6
	c-0.1,0.1-0.3,0.3-0.4,0.4c-0.3,0.3-0.7,0.6-1,0.8c-2.3,1.8-4.8,2.8-7.4,2.8c-2.4,0-4.7-0.9-6.8-2.5c-0.3-0.3-0.7-0.5-1-0.8
	c-0.2-0.2-0.4-0.3-0.5-0.5C41.2,61.4,41,61.2,40.9,61.1z M42.1,72.8c0.5-0.1,0.8-0.5,0.8-1v-6.6c2.1,1.3,4.4,2.1,6.8,2.1
	c2.6,0,5.1-0.9,7.4-2.3v6.8c0,0.5,0.3,0.9,0.8,1l3.4,0.7c-2.8,0.7-6.7,1.3-11.3,1.3c-4.7,0-8.6-0.5-11.3-1.3L42.1,72.8z M17.8,96.5
	l0.2-6.3c0.3-8.6,6.4-15.6,14.9-17.1c0.1,0,0.1,0,0.2,0c0.5,0.4,1.1,0.8,1.8,1.2c3.5,1.7,9.6,2.5,15.1,2.5s11.6-0.8,15.1-2.5
	c0.7-0.3,1.3-0.7,1.8-1.2c0.1,0,0.1,0,0.2,0c8.4,1.4,14.7,8.4,14.9,17.1l0.2,6.3H17.8z M43.1,39.6c0,1.2-1,2.2-2.2,2.2
	s-2.2-1-2.2-2.2s1-2.2,2.2-2.2S43.1,38.4,43.1,39.6z M61.2,39.6c0,1.2-1,2.2-2.2,2.2s-2.2-1-2.2-2.2s1-2.2,2.2-2.2
	S61.2,38.4,61.2,39.6z M52,48.3c0.5,0.1,0.9,0.6,0.9,1.1c-0.1,0.5-0.5,0.9-1,0.9h-0.1L49.1,50c-0.6-0.1-1.2-0.4-1.5-0.9
	s-0.5-1.1-0.4-1.7l1.2-5.7c0.1-0.5,0.6-0.9,1.2-0.8c0.5,0.1,0.9,0.6,0.8,1.2l-1.2,5.7c0,0.1,0,0.1,0,0.2l0.1,0.1L52,48.3z M50,56.1
	c1.9,0,3.3-0.8,3.7-1.7c0.3-0.5,0.9-0.6,1.4-0.4c0.5,0.3,0.6,0.9,0.4,1.4c-0.9,1.6-3.1,2.7-5.5,2.7s-4.6-1-5.5-2.7
	c-0.3-0.5-0.1-1.1,0.4-1.4s1.1-0.1,1.4,0.4C46.7,55.3,48.1,56.1,50,56.1z M44.4,35.9c-0.2,0.5-0.8,0.8-1.3,0.6
	c-3.7-1.4-6.5,1.3-6.5,1.3c-0.2,0.2-0.4,0.3-0.7,0.3s-0.5-0.1-0.7-0.3c-0.4-0.4-0.4-1,0-1.4c0.2-0.1,3.8-3.6,8.7-1.7
	C44.4,34.8,44.6,35.4,44.4,35.9z M55.6,35.9c-0.2-0.5,0.1-1.1,0.6-1.3c4.9-1.9,8.5,1.6,8.7,1.7c0.4,0.4,0.4,1,0,1.4
	c-0.2,0.2-0.5,0.3-0.7,0.3c-0.2,0-0.5-0.1-0.7-0.3c-0.1-0.1-2.9-2.7-6.5-1.3C56.4,36.7,55.8,36.4,55.6,35.9z"/>
</svg>
