<?xml version="1.0" encoding="utf-8"?>
<!-- Generator: Adobe Illustrator 22.0.1, SVG Export Plug-In . SVG Version: 6.00 Build 0)  -->
<svg version="1.1" id="Calque_1" xmlns="http://www.w3.org/2000/svg" xmlns:xlink="http://www.w3.org/1999/xlink" x="0px" y="0px"
	 viewBox="0 0 48 48" style="enable-background:new 0 0 48 48;" xml:space="preserve">
<style type="text/css">
	.st0{fill:#5F4B8B;}
</style>
<g>
	<path class="st0" d="M11.9,11c0.9-1.5,2.2-3,3.8-4.3c1.5-1.3,2.9-2.1,4.2-2.3c1.2-0.2,2,0.1,2.3,1c3.1,12.4-0.4,23.6-10.4,33.4
		c-1.5,1.4-3,2.4-4.4,3c-1.5,0.6-2.5,0.6-3,0c-0.6-0.6-0.5-1.6,0.2-3.1c0.6-1.4,1.6-2.8,2.8-4s2.1-2.5,2.9-4
		c2.2-4.8,2.4-10.1,0.6-16.1C10.5,13.8,10.9,12.5,11.9,11z M31.7,11c0.9-1.5,2.2-3,3.8-4.3c1.5-1.3,2.9-2.1,4.2-2.3
		c1.2-0.2,2,0.1,2.3,1c3.1,12.4-0.4,23.6-10.4,33.4c-1.5,1.4-3,2.4-4.4,3c-1.5,0.6-2.5,0.6-3,0c-0.6-0.6-0.5-1.6,0.2-3.1
		c0.6-1.4,1.6-2.8,2.8-4c1.2-1.2,2.1-2.5,2.9-4c2.2-4.8,2.4-10.1,0.6-16.1C30.3,13.8,30.7,12.5,31.7,11z"/>
</g>
</svg>
