<?xml version="1.0" encoding="utf-8"?>
<!-- Generator: Adobe Illustrator 22.0.1, SVG Export Plug-In . SVG Version: 6.00 Build 0)  -->
<svg version="1.1" id="Calque_1" xmlns="http://www.w3.org/2000/svg" xmlns:xlink="http://www.w3.org/1999/xlink" x="0px" y="0px"
	 viewBox="0 0 100 100" style="enable-background:new 0 0 100 100;" xml:space="preserve">
<style type="text/css">
	.st0{fill:#D0BD6D;}
	.st1{fill:none;stroke:#D0BD6D;stroke-miterlimit:10;}
</style>
<path class="st0" d="M66.6,16.2c-1.4-1.3-2.8-1.6-3.5-1.8c-0.8-0.1-1.6-0.2-2.4-0.2c-3.4-0.3-6.6-0.5-9.7-0.5l0,0
	c-0.3,0-0.6,0-0.8,0c-0.3,0-0.6,0-0.8,0l0,0c-3.1,0-6.3,0.2-9.7,0.5c-0.8,0.1-1.6,0.2-2.4,0.2c-0.6,0.1-2.2,0.5-3.5,1.8
	c-1.9,1.9-2,4.2-2.1,4.7c0,18.9,0,37.8,0,56.8c0,0.8,0.2,3.3,1.9,5.4c2.8,3.6,11.6,3.4,13.5,3.5c1.2,0,2.2,0.1,3.3,0
	c1.1,0,2.2,0,3.3,0c1.9-0.1,10.8,0.1,13.5-3.5c1.7-2.1,1.9-4.4,1.9-5.4c0-18.9,0-37.8,0-56.8C68.6,20.4,68.6,18,66.6,16.2z M61,16.9
	c0.5,0,0.8,0.4,0.8,0.8s-0.4,0.8-0.8,0.8c-0.4,0-0.8-0.4-0.8-0.8S60.5,16.9,61,16.9z M57.5,17.2c0.3,0,0.5,0.2,0.5,0.5
	c0,0.3-0.2,0.5-0.5,0.5c-0.3,0-0.5-0.2-0.5-0.5C57,17.6,57.2,17.2,57.5,17.2z M55.8,17.2c0.3,0,0.5,0.2,0.5,0.5
	c0,0.3-0.2,0.5-0.5,0.5c-0.3,0-0.6-0.1-0.6-0.4C55.2,17.6,55.5,17.2,55.8,17.2z M46.6,16.3h6.9c0.2,0,0.3,0.2,0.3,0.3
	c0,0.2-0.2,0.3-0.3,0.3h-6.9c-0.2,0-0.3-0.2-0.3-0.3C46.2,16.5,46.3,16.3,46.6,16.3z M54.2,82.7c0,0.2-0.1,0.2-0.2,0.5
	c-0.1,0.1-0.2,0.2-0.4,0.4c-0.2,0.2-0.5,0.2-0.5,0.2c-0.8,0-1.8,0-2.7,0c-0.2,0-0.4,0-0.5,0c-0.8,0-1.8,0-2.7,0
	c-0.1,0-0.3,0-0.5-0.2c-0.2-0.2-0.3-0.3-0.4-0.4c-0.1-0.2-0.2-0.3-0.2-0.5c-0.1-0.1-0.1-0.3-0.1-0.5c0-0.1,0-0.3,0.2-0.5
	c0.2-0.1,0.2-0.2,0.3-0.2h3.4h0.5h3.4c0.1,0,0.2,0,0.3,0.2C54,81.8,54,82,54,82.1C54.2,82.3,54.2,82.6,54.2,82.7z M66.5,77.5h-33
	V20.4h32.9v57.1H66.5z"/>
<circle class="st1" cx="50.3" cy="50.1" r="49.5"/>
</svg>
