<?xml version="1.0" encoding="utf-8"?>
<!-- Generator: Adobe Illustrator 22.0.1, SVG Export Plug-In . SVG Version: 6.00 Build 0)  -->
<svg version="1.1" id="Calque_1" xmlns="http://www.w3.org/2000/svg" xmlns:xlink="http://www.w3.org/1999/xlink" x="0px" y="0px"
	 viewBox="0 0 100 104" style="enable-background:new 0 0 100 104;" xml:space="preserve">
<style type="text/css">
	.st0{fill:#FFFFFF;}
	.st1{fill:none;stroke:#FFFFFF;stroke-miterlimit:10;}
</style>
<g>
	<path class="st0" d="M79.9,34.9C79.9,18.4,66.5,5,50,5S20.1,18.4,20.1,34.9c0,5.1,1.3,9.8,3.5,14l18,34l0,0l5.3,10
		c1.7,3.2,4.5,3.2,6.2,0l3.5-6.5l19.9-37.5l0,0C78.6,44.7,79.9,40,79.9,34.9z M50,45.5c-5.9,0-10.6-4.7-10.6-10.6S44.1,24.3,50,24.3
		S60.6,29,60.6,34.9S55.9,45.5,50,45.5z"/>
</g>
<circle class="st1" cx="50" cy="50.1" r="61"/>
</svg>
