<?xml version="1.0" encoding="utf-8"?>
<!-- Generator: Adobe Illustrator 22.0.1, SVG Export Plug-In . SVG Version: 6.00 Build 0)  -->
<svg version="1.1" id="Calque_1" xmlns="http://www.w3.org/2000/svg" xmlns:xlink="http://www.w3.org/1999/xlink" x="0px" y="0px"
	 viewBox="0 0 48 48.9" style="enable-background:new 0 0 48 48.9;" xml:space="preserve">
<style type="text/css">
	.st0{fill:#D0BD6D;}
</style>
<g>
	<path class="st0" d="M48,10.9c0-0.1,0-0.2-0.1-0.3v-0.1c0-0.1-0.1-0.2-0.2-0.3l0,0l-10-10l0,0c-0.1-0.1-0.2-0.1-0.3-0.2h-0.1
		c-0.1,0-0.2,0-0.3-0.1c0,0,0,0-0.1,0H1C0.4,0,0,0.4,0,1v32c0,0.6,0.4,1,1,1h27.6c0.5,0.8,1.1,1.6,1.8,2.1V47c0,0.4,0.2,0.8,0.6,0.9
		c0.1,0.1,0.3,0.1,0.4,0.1c0.2,0,0.5-0.1,0.7-0.3l2.7-2.4l2.7,2.4c0.3,0.3,0.7,0.3,1.1,0.2c0.4-0.2,0.6-0.5,0.6-0.9V36.1
		c0.7-0.6,1.4-1.3,1.8-2.1h6c0.6,0,1-0.4,1-1L48,10.9C48,11,48,11,48,10.9z M44.6,10H38V3.4L44.6,10z M34.8,35.7c-2.8,0-5-2.2-5-5
		s2.2-5,5-5s5,2.2,5,5C39.8,33.4,37.5,35.7,34.8,35.7z M37.1,44.8l-1.7-1.5c-0.4-0.3-1-0.3-1.3,0l-1.7,1.5v-7.5
		c0.7,0.3,1.5,0.4,2.3,0.4s1.6-0.1,2.3-0.4v7.5H37.1z M46,32h-4.4c0.1-0.4,0.1-0.9,0.1-1.3c0-3.9-3.1-7-7-7s-7,3.1-7,7
		c0,0.5,0,0.9,0.1,1.3H2V2h34v9c0,0.6,0.4,1,1,1h9V32z"/>
	<path class="st0" d="M27.4,10.5c0.6,0,1-0.4,1-1s-0.4-1-1-1H7.2c-0.6,0-1,0.4-1,1s0.4,1,1,1H27.4z"/>
	<path class="st0" d="M6.7,16.8c0,0.6,0.4,1,1,1h33c0.6,0,1-0.4,1-1s-0.4-1-1-1h-33C7.2,15.8,6.7,16.2,6.7,16.8z"/>
	<path class="st0" d="M21.6,23.1H7.7c-0.6,0-1,0.4-1,1s0.4,1,1,1h13.9c0.6,0,1-0.4,1-1S22.1,23.1,21.6,23.1z"/>
</g>
</svg>
