<?xml version="1.0" encoding="utf-8"?>
<!-- Generator: Adobe Illustrator 22.0.1, SVG Export Plug-In . SVG Version: 6.00 Build 0)  -->
<svg version="1.1" id="Calque_1" xmlns="http://www.w3.org/2000/svg" xmlns:xlink="http://www.w3.org/1999/xlink" x="0px" y="0px"
	 viewBox="0 0 48 48" style="enable-background:new 0 0 48 48;" xml:space="preserve">
<style type="text/css">
	.st0{fill:#5F4C8C;stroke:#5F4C8C;stroke-miterlimit:10;}
	.st1{fill:#D0BD6D;}
</style>
<g>
	<path class="st0" d="M24.2,26.5c-1.8,0-3.2-1.4-3.2-3.2c0-1.8,1.4-3.2,3.2-3.2c1.8,0,3.2,1.4,3.2,3.2
		C27.4,25.1,25.9,26.5,24.2,26.5z"/>
	<g>
		<g>
			<g>
				<path class="st1" d="M14.7,20.8c4.6-5.7,14.1-6.1,18.5-0.3c1,1.3,3.1,0,2.2-1.3C30,12.1,18.6,12,12.9,19.1
					C12,20.3,13.7,22.1,14.7,20.8L14.7,20.8z"/>
			</g>
		</g>
		<g>
			<g>
				<path class="st1" d="M12.9,27.8c5.7,7,17,6.9,22.4-0.3c1-1.3-1.2-2.5-2.2-1.3c-4.4,5.9-13.9,5.4-18.5-0.3
					C13.7,24.8,12,26.6,12.9,27.8L12.9,27.8z"/>
			</g>
		</g>
	</g>
</g>
</svg>
